<?xml version="1.0" encoding="UTF-8" ?>
<!DOCTYPE svg PUBLIC "-//W3C//DTD SVG 1.1//EN" "http://www.w3.org/Graphics/SVG/1.1/DTD/svg11.dtd">
<svg width="273pt" height="166pt" viewBox="0 0 273 166" version="1.1" xmlns="http://www.w3.org/2000/svg">
<g id="#f8fafbff">
</g>
<g id="#000000ff">
<path fill="#000000" opacity="1.00" d=" M 51.43 22.66 C 67.05 17.25 84.77 18.13 99.73 25.17 C 108.00 29.00 115.40 34.67 121.33 41.59 C 139.44 62.52 157.53 83.47 175.71 104.34 C 186.11 116.15 205.39 118.31 218.22 109.26 C 229.37 101.85 234.74 86.96 230.80 74.14 C 228.35 65.47 222.00 58.03 213.84 54.21 C 203.23 49.17 189.91 50.39 180.44 57.38 C 173.49 62.91 168.48 70.43 162.44 76.88 C 155.39 68.72 148.31 60.59 141.28 52.42 C 147.34 45.77 152.67 38.34 159.86 32.82 C 171.18 23.87 185.60 18.97 200.03 19.18 C 215.80 19.16 231.46 25.25 243.07 35.91 C 254.40 46.18 261.82 60.65 263.54 75.85 C 265.41 91.36 261.31 107.50 252.25 120.24 C 243.35 132.96 229.66 142.19 214.55 145.69 C 191.70 151.33 166.24 142.94 151.13 124.93 C 132.69 103.67 114.34 82.32 95.81 61.14 C 84.18 48.42 62.22 47.74 49.91 59.85 C 38.55 70.15 36.64 88.88 45.69 101.26 C 53.96 113.56 71.11 118.15 84.65 112.46 C 95.69 108.15 101.70 97.28 109.57 89.12 C 116.61 97.28 123.69 105.41 130.72 113.58 C 124.66 120.26 119.29 127.68 112.09 133.22 C 100.00 142.79 84.34 147.63 68.96 146.74 C 52.84 145.99 37.18 138.75 26.09 127.04 C 16.48 117.02 10.28 103.79 8.83 89.98 C 7.22 75.61 10.66 60.73 18.51 48.59 C 26.18 36.59 37.96 27.27 51.43 22.66 Z" />
</g>
</svg>
