<?xml version="1.0" encoding="utf-8"?>
<!-- Generator: Adobe Illustrator 25.4.1, SVG Export Plug-In . SVG Version: 6.00 Build 0)  -->
<svg version="1.1" id="Layer_1" xmlns="http://www.w3.org/2000/svg" xmlns:xlink="http://www.w3.org/1999/xlink" x="0px"
	y="0px" viewBox="0 0 200 200" style="enable-background:new 0 0 200 200;" xml:space="preserve">
	<style type="text/css">
		.st0 {
			fill: #2BAE68;
		}
	</style>
	<g id="_x23_3d3d3dff">
		<path class="st0" d="M36.8,10.81C36.58,4.87,41.46-0.8,47.55-0.65c35.01-0.06,70.02-0.06,105.03,0
		c6.07-0.06,10.76,5.58,10.62,11.46C121.07,10.81,78.93,10.82,36.8,10.81z" />
		<path class="st0" d="M36.91,14.08c42.03,0.02,84.07,0.1,126.11-0.04c0.1,62.2-0.08,124.39,0.09,186.59
		c-15.46,0.12-30.91,0.01-46.36,0.06c0-12.96,0-25.91,0-38.86c-11.18,0-22.36,0-33.53-0.01c0.01,12.96-0.02,25.92,0.02,38.88
		c-15.44-0.09-30.89,0-46.33-0.03C36.91,138.47,36.96,76.27,36.91,14.08 M48.45,42.7c-0.01,6.03-0.04,12.05,0.02,18.07
		c7.55,0.06,15.1-0.05,22.65,0.07c-0.02-6.06,0.04-12.12-0.03-18.17C63.54,42.74,55.99,42.68,48.45,42.7 M88.74,42.7
		c-0.04,6.04-0.04,12.07-0.03,18.1c7.52,0.02,15.04-0.01,22.56,0.02c0-6.04,0-12.08,0.02-18.11C103.77,42.7,96.25,42.7,88.74,42.7
		 M126.06,42.69c-0.01,6.04-0.03,12.09,0.02,18.13c7.54-0.05,15.09-0.02,22.64-0.02c0.01-6.03,0.01-12.06,0-18.09
		C141.17,42.68,133.61,42.72,126.06,42.69 M48.45,85.56c0,6.03-0.05,12.07,0.04,18.1c7.55,0.01,15.09-0.01,22.64,0.02
		c-0.06-6.05,0.02-12.1-0.05-18.15C63.54,85.57,55.99,85.52,48.45,85.56 M88.7,85.58c-0.02,6.03,0.01,12.06,0.02,18.1
		c7.51-0.01,15.03-0.04,22.54,0.01c0.06-6.04,0.02-12.08,0.04-18.12C103.76,85.52,96.23,85.51,88.7,85.58 M126.07,85.53
		c-0.03,6.03,0.03,12.07-0.03,18.1c7.53,0.07,15.07-0.01,22.61,0.05c0.14-6.05,0.02-12.1,0.07-18.15
		C141.17,85.57,133.62,85.57,126.07,85.53 M48.44,130.17c0,6.02-0.02,12.03,0.02,18.05c7.54,0,15.07-0.07,22.6,0.04
		c0.09-6.04-0.01-12.09,0.07-18.13C63.57,130.19,56,130.13,48.44,130.17 M88.7,130.15c0.04,6.02-0.03,12.03,0.03,18.05
		c7.52,0.02,15.04,0.01,22.56,0.01c-0.02-6.04,0.01-12.07-0.02-18.1C103.75,130.2,96.23,130.14,88.7,130.15 M126.66,130.13
		c-0.3,6.02-0.19,12.06-0.15,18.09c7.57-0.05,15.14,0.02,22.71-0.04c-0.06-6-0.05-12-0.01-18
		C141.7,130.12,134.18,130.2,126.66,130.13z" />
	</g>
</svg>