<svg viewBox="6.14 3.02 463.37 621.27">
    <path
        d=" M 218.96 6.96 C 223.44 4.19 228.81 3.68 233.95 3.27 C 244.76 2.14 256.46 4.83 264.49 12.48 C 306.07 54.41 343.95 100.03 377.22 148.82 C 402.93 186.59 425.85 226.48 443.05 268.87 C 458.79 308.31 469.84 350.29 469.51 393.02 C 469.29 405.52 468.78 418.16 466.23 430.42 C 464.32 446.04 459.60 461.24 454.06 475.94 C 439.45 514.01 414.42 547.96 382.61 573.44 C 355.36 595.28 323.17 610.96 289.07 618.57 C 248.26 627.86 204.95 625.81 165.22 612.63 C 129.38 600.75 96.47 580.00 70.49 552.57 C 33.54 514.43 10.89 463.04 6.86 410.15 C 4.75 384.15 7.48 357.93 12.79 332.45 C 21.22 292.31 37.04 254.08 55.99 217.83 C 93.80 147.21 143.10 83.21 198.45 25.50 C 204.98 19.02 211.03 11.83 218.96 6.96 M 190.76 154.76 C 168.98 182.94 148.98 212.52 131.55 243.58 C 113.17 276.76 97.76 311.94 89.53 349.09 C 86.71 362.53 85.24 376.26 84.99 389.98 C 84.30 418.47 91.97 447.06 106.73 471.43 C 117.44 489.07 131.64 504.61 148.37 516.69 C 180.08 539.91 221.06 549.88 259.91 544.06 C 296.51 538.98 330.79 519.75 354.59 491.55 C 380.28 461.61 393.49 421.36 390.53 382.03 C 389.59 360.88 384.62 340.14 378.10 320.08 C 370.25 296.45 359.83 273.73 348.14 251.77 C 328.98 216.37 306.32 182.97 281.67 151.19 C 267.75 133.15 252.45 116.24 237.80 98.80 C 221.70 117.10 205.55 135.38 190.76 154.76 Z">
    </path>
    <path
        d=" M 247.79 241.57 C 260.00 237.16 274.42 239.20 284.66 247.29 C 299.52 258.03 304.35 279.87 296.06 296.10 C 288.18 311.01 280.17 325.85 272.28 340.75 C 279.60 340.82 287.19 340.39 294.13 343.14 C 308.91 348.46 319.67 363.68 319.52 379.38 C 319.99 385.83 318.39 392.46 315.29 398.19 C 297.33 431.84 279.37 465.49 261.39 499.13 C 256.40 509.06 246.95 516.59 236.20 519.40 C 225.78 522.31 214.26 520.43 205.15 514.64 C 188.36 504.45 181.89 480.65 191.42 463.43 C 199.27 448.73 206.93 433.92 214.96 419.32 C 207.46 419.13 199.63 419.68 192.58 416.61 C 181.77 412.54 173.05 403.41 169.45 392.45 C 167.08 384.75 166.51 376.19 169.31 368.53 C 171.54 360.98 175.94 354.36 179.49 347.40 C 195.15 318.12 210.80 288.83 226.49 259.57 C 230.97 251.16 238.80 244.68 247.79 241.57 Z">
    </path>
</svg>