<?xml version="1.0" encoding="UTF-8" ?>
<!DOCTYPE svg PUBLIC "-//W3C//DTD SVG 1.1//EN" "http://www.w3.org/Graphics/SVG/1.1/DTD/svg11.dtd">
<svg width="202pt" height="282pt" viewBox="0 0 202 282" version="1.1" xmlns="http://www.w3.org/2000/svg">
<g id="#f8fafbff">
</g>
<g id="#000000ff">
<path fill="#000000" opacity="1.00" d=" M 12.14 11.20 C 14.74 10.82 17.38 11.03 19.99 11.00 C 77.37 11.02 134.76 10.97 192.14 11.02 C 194.89 10.70 197.21 13.24 196.86 15.94 C 196.87 97.97 196.87 180.00 196.86 262.03 C 197.22 264.73 194.91 267.31 192.14 266.98 C 132.71 267.01 73.27 267.02 13.85 266.98 C 11.12 267.30 8.81 264.79 9.14 262.11 C 9.12 180.06 9.13 98.01 9.14 15.96 C 8.96 13.93 10.07 11.74 12.14 11.20 M 17.67 19.53 C 17.67 99.18 17.67 178.82 17.67 258.47 C 74.56 258.47 131.44 258.47 188.33 258.47 C 188.33 178.82 188.33 99.18 188.33 19.53 C 131.44 19.53 74.56 19.53 17.67 19.53 Z" />
<path fill="#000000" opacity="1.00" d=" M 146.44 29.12 C 146.92 27.05 148.85 25.52 151.01 25.73 C 157.34 25.71 163.69 25.58 170.01 25.80 C 172.74 25.86 174.69 29.13 173.47 31.57 C 171.25 36.50 168.63 41.24 166.29 46.11 C 169.71 46.48 174.49 44.78 176.71 48.29 C 178.01 50.36 176.79 52.71 175.32 54.29 C 166.89 64.50 158.49 74.75 150.10 85.00 C 149.03 86.25 147.86 87.76 146.05 87.79 C 143.56 88.03 141.12 85.64 141.58 83.12 C 142.66 77.02 144.13 70.99 145.36 64.92 C 142.89 64.72 139.67 65.48 137.98 63.13 C 136.68 61.56 137.26 59.49 137.78 57.75 C 140.71 48.22 143.52 38.65 146.44 29.12 M 153.80 34.23 C 151.58 41.56 149.39 48.90 147.16 56.23 C 149.45 56.44 152.42 55.80 154.01 57.98 C 155.95 60.80 153.86 64.31 153.58 67.31 C 157.05 63.09 160.49 58.86 163.98 54.66 C 161.34 54.42 157.90 55.42 156.01 52.97 C 154.78 51.51 155.00 49.43 155.88 47.85 C 158.11 43.29 160.45 38.79 162.69 34.23 C 159.73 34.23 156.76 34.23 153.80 34.23 Z" />
<path fill="#000000" opacity="1.00" d=" M 26.78 33.21 C 37.86 33.21 48.95 33.21 60.03 33.21 C 60.03 36.06 60.03 38.90 60.03 41.75 C 48.95 41.75 37.86 41.74 26.78 41.75 C 26.78 38.90 26.78 36.06 26.78 33.21 Z" />
<path fill="#000000" opacity="1.00" d=" M 27.36 50.42 C 47.94 50.41 68.53 50.42 89.12 50.41 C 89.11 53.26 89.12 56.10 89.12 58.95 C 68.53 58.95 47.94 58.95 27.35 58.95 C 27.35 56.10 27.36 53.26 27.36 50.42 Z" />
<path fill="#000000" opacity="1.00" d=" M 26.78 66.47 C 31.53 66.47 36.28 66.47 41.03 66.47 C 41.03 69.31 41.03 72.16 41.03 75.00 C 36.28 75.00 31.53 75.00 26.78 75.00 C 26.78 72.16 26.78 69.31 26.78 66.47 Z" />
<path fill="#000000" opacity="1.00" d=" M 50.53 66.47 C 55.28 66.47 60.03 66.47 64.78 66.47 C 64.78 69.31 64.79 72.15 64.79 75.00 C 60.03 75.00 55.28 75.00 50.53 75.00 C 50.53 72.16 50.53 69.31 50.53 66.47 Z" />
<path fill="#000000" opacity="1.00" d=" M 74.29 66.47 C 79.04 66.47 83.79 66.47 88.54 66.47 C 88.54 69.31 88.54 72.15 88.55 75.00 C 83.79 75.00 79.04 75.00 74.28 75.00 C 74.29 72.15 74.29 69.31 74.29 66.47 Z" />
<path fill="#000000" opacity="1.00" d=" M 98.04 66.46 C 102.79 66.47 107.54 66.46 112.29 66.47 C 112.29 69.31 112.29 72.16 112.30 75.00 C 107.54 75.00 102.79 75.00 98.03 75.00 C 98.03 72.15 98.04 69.31 98.04 66.46 Z" />
<path fill="#000000" opacity="1.00" d=" M 28.27 92.12 C 29.71 91.29 31.46 91.59 33.04 91.48 C 80.34 91.55 127.65 91.45 174.95 91.52 C 176.96 91.34 179.09 92.53 179.60 94.57 C 179.96 96.68 179.78 98.84 179.81 100.98 C 179.77 135.01 179.84 169.05 179.78 203.09 C 179.94 205.05 178.74 207.10 176.77 207.61 C 174.21 207.97 171.61 207.77 169.03 207.80 C 123.02 207.79 77.00 207.82 30.99 207.79 C 28.31 208.13 25.89 205.73 26.22 203.04 C 26.17 167.66 26.22 132.27 26.19 96.89 C 26.10 95.09 26.55 93.04 28.27 92.12 M 34.73 100.03 C 34.73 104.49 34.73 108.94 34.73 113.40 C 63.18 113.40 91.62 113.40 120.07 113.40 C 120.07 108.94 120.07 104.49 120.07 100.03 C 91.62 100.03 63.18 100.03 34.73 100.03 M 128.60 100.03 C 128.60 104.49 128.60 108.94 128.60 113.40 C 142.82 113.40 157.05 113.40 171.27 113.40 C 171.27 108.94 171.27 104.49 171.27 100.03 C 157.04 100.03 142.82 100.03 128.60 100.03 M 34.73 121.93 C 34.73 147.71 34.73 173.49 34.73 199.27 C 63.18 199.27 91.62 199.27 120.07 199.27 C 120.07 173.49 120.07 147.71 120.07 121.93 C 91.62 121.93 63.18 121.93 34.73 121.93 M 128.60 121.93 C 128.60 147.68 128.60 173.42 128.60 199.17 C 142.82 199.17 157.04 199.17 171.27 199.17 C 171.27 173.42 171.27 147.68 171.27 121.93 C 157.04 121.93 142.82 121.93 128.60 121.93 Z" />
<path fill="#000000" opacity="1.00" d=" M 43.27 130.47 C 53.98 130.47 64.68 130.46 75.39 130.47 C 75.39 133.31 75.39 136.15 75.39 139.00 C 64.68 139.00 53.97 139.00 43.26 139.00 C 43.27 136.15 43.27 133.31 43.27 130.47 Z" />
<path fill="#000000" opacity="1.00" d=" M 83.42 130.47 C 92.79 130.47 102.16 130.47 111.53 130.47 C 111.53 133.31 111.53 136.15 111.54 138.99 C 102.17 139.01 92.79 139.00 83.42 139.00 C 83.42 136.15 83.43 133.31 83.42 130.47 Z" />
<path fill="#000000" opacity="1.00" d=" M 137.14 130.46 C 145.67 130.47 154.20 130.46 162.73 130.47 C 162.73 133.31 162.73 136.15 162.74 139.00 C 154.20 139.00 145.66 139.00 137.13 139.00 C 137.13 136.15 137.13 133.31 137.14 130.46 Z" />
<path fill="#000000" opacity="1.00" d=" M 43.27 156.07 C 43.27 153.22 43.27 150.37 43.27 147.53 C 48.63 147.54 53.98 147.53 59.33 147.53 C 59.33 150.38 59.33 153.22 59.33 156.07 C 53.97 156.07 48.62 156.07 43.27 156.07 Z" />
<path fill="#000000" opacity="1.00" d=" M 67.36 156.06 C 67.36 153.22 67.36 150.37 67.36 147.53 C 82.09 147.54 96.81 147.53 111.53 147.53 C 111.53 150.38 111.53 153.22 111.53 156.07 C 96.81 156.07 82.08 156.07 67.36 156.06 Z" />
<path fill="#000000" opacity="1.00" d=" M 137.13 147.53 C 145.66 147.53 154.19 147.54 162.73 147.53 C 162.73 150.37 162.73 153.22 162.73 156.07 C 154.20 156.07 145.67 156.07 137.13 156.07 C 137.13 153.22 137.13 150.38 137.13 147.53 Z" />
<path fill="#000000" opacity="1.00" d=" M 43.27 173.13 C 43.27 170.28 43.27 167.44 43.27 164.60 C 53.98 164.61 64.68 164.60 75.39 164.60 C 75.39 167.44 75.39 170.29 75.39 173.13 C 64.68 173.13 53.97 173.13 43.27 173.13 Z" />
<path fill="#000000" opacity="1.00" d=" M 83.43 173.13 C 83.42 170.29 83.42 167.44 83.43 164.60 C 92.79 164.60 102.16 164.60 111.53 164.60 C 111.53 167.44 111.53 170.29 111.53 173.13 C 102.16 173.13 92.79 173.13 83.43 173.13 Z" />
<path fill="#000000" opacity="1.00" d=" M 137.13 164.60 C 145.66 164.60 154.20 164.61 162.73 164.60 C 162.73 167.44 162.73 170.28 162.73 173.13 C 154.20 173.13 145.67 173.13 137.13 173.13 C 137.13 170.29 137.13 167.44 137.13 164.60 Z" />
<path fill="#000000" opacity="1.00" d=" M 43.27 181.67 C 48.62 181.66 53.97 181.67 59.33 181.67 C 59.33 184.51 59.33 187.35 59.33 190.20 C 53.97 190.20 48.62 190.20 43.27 190.20 C 43.27 187.35 43.27 184.51 43.27 181.67 Z" />
<path fill="#000000" opacity="1.00" d=" M 67.36 190.20 C 67.36 187.35 67.36 184.51 67.37 181.66 C 82.09 181.67 96.81 181.67 111.53 181.67 C 111.53 184.51 111.53 187.35 111.53 190.20 C 96.81 190.20 82.09 190.20 67.36 190.20 Z" />
<path fill="#000000" opacity="1.00" d=" M 137.13 181.66 C 145.67 181.67 154.20 181.66 162.73 181.67 C 162.73 184.51 162.73 187.35 162.73 190.20 C 154.20 190.20 145.67 190.20 137.13 190.20 C 137.13 187.35 137.13 184.51 137.13 181.66 Z" />
<path fill="#000000" opacity="1.00" d=" M 141.39 220.07 C 152.77 220.06 164.15 220.07 175.53 220.07 C 175.53 222.91 175.53 225.75 175.53 228.60 C 164.16 228.60 152.78 228.60 141.40 228.60 C 141.40 225.76 141.40 222.91 141.39 220.07 Z" />
<path fill="#000000" opacity="1.00" d=" M 124.33 237.14 C 141.40 237.13 158.47 237.13 175.53 237.13 C 175.53 239.97 175.53 242.81 175.54 245.66 C 158.47 245.67 141.40 245.66 124.33 245.67 C 124.33 242.82 124.33 239.98 124.33 237.14 Z" />
</g>
</svg>
