<?xml version="1.0" encoding="utf-8"?>
<!-- Generator: Adobe Illustrator 25.4.1, SVG Export Plug-In . SVG Version: 6.00 Build 0)  -->
<svg version="1.1" id="Layer_1" xmlns="http://www.w3.org/2000/svg" xmlns:xlink="http://www.w3.org/1999/xlink" x="0px"
	y="0px" viewBox="0 0 200 200" style="enable-background:new 0 0 200 200;" xml:space="preserve">
	<style type="text/css">
		.st0 {
			fill: #FCF7F4;
		}
	</style>
	<g id="_x23_0c520cff">
		<path class="st0" d="M60.55,39.79h0.04c19.86,11.4,40.03,22.32,60.86,31.87c15.55,7.16,31.55,13.35,47.86,18.57
		c9.88,3.18,19.83,6.14,29.72,9.32c-1.29,0.85-2.55,1.75-3.85,2.58c1.61,0.52,3.2,1.08,4.81,1.59v0.01
		c-1.82,1.28-3.63,2.58-5.46,3.84c1.82,0.62,3.64,1.22,5.46,1.81v0.03c-1.83,1.26-3.65,2.53-5.44,3.85c1.82,0.58,3.62,1.22,5.44,1.8
		v0.07c-4.28,2.87-8.43,5.93-12.66,8.88c-17.1,12.06-34.19,24.14-51.29,36.2c-32.65-13.78-64.04-30.44-94.33-48.8
		c-13.9-8.42-27.58-17.19-41.08-26.22C0.43,85.06,0.22,84.94,0,84.84v-0.07c1.56-0.87,3.15-1.68,4.72-2.53
		c-1.57-1.05-3.15-2.1-4.72-3.15v-0.02c1.58-0.8,3.12-1.68,4.7-2.49c-1.55-1.06-3.09-2.14-4.7-3.11V73.4
		c0.89-0.42,1.72-0.94,2.61-1.36c-0.71-0.46-1.42-0.91-2.13-1.36C20.49,60.35,40.54,50.11,60.55,39.79 M25.87,62.79
		c2.88,5.9,2.66,13.17-0.54,18.9c9.15,6.24,18.6,12.01,28.24,17.47c16.46-10.34,32.93-20.68,49.42-30.98
		c-9.75-4.74-19.47-9.53-29.05-14.59c-3.96,2.04-8.46,2.92-12.9,2.88c-5.34-0.04-10.8-1.42-15.15-4.61
		C39.23,55.55,32.52,59.13,25.87,62.79 M7.93,75.43c14.6,9.7,29.44,19.05,44.53,27.99c-0.01-0.44-0.02-0.88-0.02-1.31
		C42.08,96.23,31.81,90.2,21.67,83.97C17.06,81.17,12.53,78.23,7.93,75.43 M4.84,79.06c15.64,10.42,31.51,20.5,47.67,30.09
		c-0.01-0.88-0.01-1.77-0.01-2.65C37.03,97.4,21.82,87.86,6.85,77.97C6.18,78.33,5.5,78.68,4.84,79.06 M83.2,114.62
		c11.94,5.77,24.03,11.22,36.19,16.53c7.29-7.01,19.61-7.65,27.76-1.77c7.83-5.35,15.66-10.71,23.49-16.05
		c-3.25-5.18-3.11-12.19,0.25-17.29c-4.74-1.31-9.4-2.9-14.03-4.57c-7.88-2.88-15.66-6.03-23.35-9.38
		C116.74,92.93,99.98,103.78,83.2,114.62 M4.84,84.7c15.64,10.49,31.56,20.55,47.75,30.16c-0.04-0.9-0.01-1.8-0.07-2.7
		c-1.35-0.74-2.65-1.55-3.98-2.32c-14.11-8.4-28-17.15-41.7-26.2C6.18,84,5.51,84.36,4.84,84.7 M135.57,142.57
		c-18.73-7.59-37.09-16.08-55.05-25.34c-0.05,0.7-0.04,1.41-0.06,2.11c17.88,9.71,36.17,18.7,54.91,26.65
		c9.03-6.39,18.09-12.75,27.11-19.15c4.81-4.06,9.6-8.16,14.38-12.26C163.1,123.89,149.32,133.21,135.57,142.57 M80.42,122.19
		c-0.01,0.93-0.01,1.86-0.01,2.8c17.91,9.71,36.21,18.71,54.96,26.67c7.4-5.25,14.84-10.45,22.23-15.71
		c5.12-4.31,10.16-8.73,15.29-13.04c-1.86,1.16-3.58,2.54-5.39,3.76c-10.48,7.4-20.96,14.79-31.44,22.2
		C117.1,140.87,98.56,131.9,80.42,122.19 M80.36,127.81c0,0.93-0.02,1.86-0.04,2.79c17.94,9.74,36.26,18.78,55.07,26.72
		c5.29-3.76,10.6-7.48,15.89-11.23c1.65-1.11,3.1-2.48,4.64-3.73c4.47-3.78,8.99-7.51,13.44-11.32
		c-11.11,7.82-22.21,15.67-33.31,23.51C117.09,146.5,98.51,137.57,80.36,127.81z" />
		<path class="st0" d="M63.96,70.01c6.73-3.38,14.44-4.38,21.89-3.91c3.31,0.24,6.61,0.75,9.84,1.56
		C80.75,76.88,65.8,86.08,50.88,95.33c-1.11-4.67-0.63-9.73,1.45-14.06C54.71,76.27,59.07,72.45,63.96,70.01z" />
		<path class="st0" d="M96.18,110.15c13.58-8.65,27.17-17.29,40.75-25.95c0.79,3.82,0.8,7.84-0.24,11.62
		c-1.15,4.32-3.64,8.23-6.91,11.25c-4.84,4.47-11.15,7.12-17.59,8.28c-7.44,1.34-15.13,0.76-22.44-1.05
		C91.85,112.84,94.05,111.55,96.18,110.15z" />
	</g>
</svg>