<svg viewBox="0 0 512 512">
    <path
        d=" M 0.00 116.58 C 84.03 90.21 168.03 63.76 252.06 37.40 C 256.42 35.85 260.90 37.54 265.05 38.91 C 347.36 64.84 429.72 90.59 512.00 116.58 L 512.00 176.35 C 429.93 202.13 347.86 227.93 265.78 253.72 C 261.35 255.19 256.57 257.05 251.90 255.46 C 190.26 235.93 128.59 216.53 66.97 196.97 C 60.21 202.39 55.33 209.76 51.48 217.43 C 42.27 236.91 38.40 258.45 36.94 279.81 C 44.25 284.18 50.64 290.66 53.13 298.98 C 56.62 310.49 55.17 324.04 47.40 333.54 C 44.88 336.75 41.60 339.25 38.35 341.68 C 43.92 382.77 49.39 423.87 54.86 464.96 C 55.89 470.17 51.37 475.74 46.00 475.49 C 30.67 475.51 15.33 475.49 0.00 475.50 L 0.00 279.93 C 0.74 276.30 0.93 272.60 1.18 268.92 C 3.78 239.45 11.32 209.61 28.35 185.01 C 18.92 181.99 9.42 179.16 0.00 176.10 L 0.00 116.58 Z" />
    <path
        d=" M 78.37 239.04 C 132.81 256.12 187.19 273.39 241.62 290.50 C 251.46 293.58 262.20 293.34 271.96 290.08 C 325.91 273.02 379.88 256.06 433.81 238.98 C 435.47 268.64 437.20 298.30 438.84 327.96 C 439.26 333.69 438.25 339.54 435.63 344.67 C 430.73 354.30 422.19 361.45 413.31 367.29 C 393.85 379.93 371.41 387.01 349.01 392.38 C 296.29 404.14 241.38 405.20 188.02 397.21 C 163.75 393.12 139.53 387.43 117.02 377.24 C 104.59 371.35 92.29 364.33 82.97 354.02 C 76.81 347.24 72.65 338.28 73.29 328.98 C 74.94 298.99 76.70 269.02 78.37 239.04 Z" />
</svg>