<?xml version="1.0" encoding="utf-8"?>
<!-- Generator: Adobe Illustrator 25.4.1, SVG Export Plug-In . SVG Version: 6.00 Build 0)  -->
<svg version="1.1" id="Layer_1" xmlns="http://www.w3.org/2000/svg" xmlns:xlink="http://www.w3.org/1999/xlink" x="0px"
	y="0px" viewBox="0 0 200 200" style="enable-background:new 0 0 200 200;" xml:space="preserve">
	<style type="text/css">
		.st0 {
			fill: #2BAE68;
			stroke: #2BAE68;
			stroke-width: 8;
			stroke-miterlimit: 10;
		}
	</style>
	<g id="_x23_000000ff">
		<path class="st0" d="M74.24,11.67c7.04-3.12,14.6-5.41,22.36-5.39c1.44-0.05,2.87-0.39,4.3-0.19c1.33,0.17,2.67,0.23,4.01,0.23
		c5.1,0.2,10.17,1.22,14.93,3.05c4.43,1.34,8.62,3.38,12.58,5.78c10.4,6.8,19.34,16.3,24.07,27.91c1.61,3.21,2.44,6.72,3.52,10.12
		c1.61,6.34,1.56,12.96,1.31,19.46c-0.15,3.9-0.86,7.75-1.96,11.49c-1.38,5.24-3.59,10.26-6.46,14.86
		c-4.36,7.07-9.95,13.44-16.72,18.28c-5.93,4.31-12.64,7.53-19.7,9.5c-2.49,0.87-5.13,1.11-7.69,1.74c0.09,7.14,0,14.3,0.07,21.45
		c5.67,0.13,11.33,0.04,16.99,0.09c2.38,0,4.82-0.02,7.11,0.7c3.19,1.69,5.48,5.25,5.09,8.94c-0.51,3.83-3.74,7.62-7.84,7.49
		c-7.1,0.72-14.25,0.12-21.37,0.36c0.02,5.08-0.05,10.15-0.02,15.23c-0.06,1.68-0.31,3.36-0.54,5.02c-0.52,1.91-2.02,3.38-3.6,4.49
		c-1.25,0.93-2.84,1.11-4.25,1.69h-0.67c-1.2-0.49-2.55-0.62-3.67-1.32c-2.2-1.41-4.24-3.57-4.42-6.31
		c-0.21-6.28,0-12.56-0.17-18.84c-6.13-0.15-12.26,0.16-18.39-0.01c-1.7-0.17-3.41-0.26-5.08-0.59c-1.66-0.39-2.91-1.64-4.05-2.85
		c-1.84-2.11-2.27-5.23-1.5-7.87c0.63-2.28,2.35-4.16,4.39-5.28c3.38-1.24,7.07-0.88,10.61-0.94c4.68-0.07,9.36,0.13,14.04,0
		c0.12-4.7-0.13-9.41,0.05-14.11c-0.04-2.46,0.21-4.94-0.12-7.4c-11.4-1.78-22.4-6.5-31.17-14.05c-3.66-2.87-6.64-6.46-9.44-10.14
		c-3.95-5.32-7.27-11.17-9.18-17.54c-0.68-2.27-1.55-4.49-1.95-6.84c-0.54-2.74-0.78-5.54-1.05-8.32
		c-0.89-14.01,3.19-28.3,11.43-39.68C56.07,23.11,64.67,16.24,74.24,11.67 M96.33,23.31c-5.85,0.78-11.67,2.37-16.93,5.1
		c-7.93,4.35-14.57,11.04-18.8,19.04c-1.5,3.36-3.13,6.74-3.77,10.39c-0.94,4-0.77,8.15-0.79,12.24c0.03,4.46,0.88,8.91,2.6,13.03
		c2.95,8.04,8.55,14.94,15.39,20.03c4.01,3.18,8.76,5.21,13.54,6.92c4.87,1.48,9.99,1.58,15.04,1.39c9.05,0,17.98-3.5,24.86-9.34
		c5.69-4.28,10.07-10.13,13.06-16.55c1.55-3.54,3.03-7.21,3.36-11.11c0.28-3.24,0.29-6.5,0.12-9.77c0.03-3.28-0.43-6.55-1.29-9.72
		c-0.93-2.68-2.06-5.29-3.25-7.88c-3.2-5.81-7.61-10.94-12.87-14.98c-3.87-2.69-8.05-5.02-12.49-6.62
		C108.37,23.88,102.33,23.03,96.33,23.31z" />
	</g>
</svg>