<?xml version="1.0" encoding="utf-8"?>
<!-- Generator: Adobe Illustrator 25.4.1, SVG Export Plug-In . SVG Version: 6.00 Build 0)  -->
<svg version="1.1" id="Layer_1" xmlns="http://www.w3.org/2000/svg" xmlns:xlink="http://www.w3.org/1999/xlink" x="0px"
	y="0px" viewBox="0 0 213 190" style="enable-background:new 0 0 213 190;" xml:space="preserve">
	<style type="text/css">
		.st0 {
			fill: #FCF7F4;
		}
	</style>
	<g id="_x23_ffffffff">
	</g>
	<g id="_x23_FCF7F4ff">
		<path class="st0" d="M17.9,1.5C19.6,1.2,21.2,1,22.8,1c55.3,0,110.7,0,166,0c3,0.2,6.5-0.3,8.7,2.2c3.9,3,4.9,9.9,1,13.4
		c-21.3,21.3-42.6,42.6-64,63.8c-1.3,1.2-1.7,2.9-1.6,4.6c0.2,30.5,0.1,61,0.1,91.6c-0.1,3.6,0.4,8.2-3.1,10.5
		c-3.4,3.6-9.6,3.7-12.9-0.1c-11.4-11.2-22.7-22.6-34-34c-3.4-2.9-3-7.7-3.1-11.7c0.1-18.8-0.1-37.5,0.1-56.3c0.3-3.8-3.3-6-5.6-8.4
		c-20-20-40-40-60.1-60C9.8,12.2,12.3,3.8,17.9,1.5z" />
	</g>
</svg>