<?xml version="1.0" encoding="utf-8"?>
<!-- Generator: Adobe Illustrator 25.4.1, SVG Export Plug-In . SVG Version: 6.00 Build 0)  -->
<svg version="1.1" id="Layer_1" xmlns="http://www.w3.org/2000/svg" xmlns:xlink="http://www.w3.org/1999/xlink" x="0px"
	y="0px" viewBox="0 0 200 200" style="enable-background:new 0 0 200 200;" xml:space="preserve">
	<style type="text/css">
		.st0 {
			fill: #2BAE68;
			stroke: #2BAE68;
			stroke-width: 6;
			stroke-miterlimit: 10;
		}
	</style>
	<g id="_x23_000000ff">
		<path class="st0" d="M153.44,45.98c0.22-1.76,1.84-2.98,3.59-2.85c6.91-0.02,13.82-0.01,20.72-0.01c1.88-0.18,3.72,1.15,3.92,3.07
		c1.32,8.82,2.72,17.64,4.03,26.46c0.38,1.86-1.09,3.89-3.01,3.95c-3.95,0.1-7.91,0-11.86,0.04c0,24.44-0.01,48.88,0,73.31
		c6.89,0.01,13.79-0.03,20.68,0.01c2.4-0.13,3.96,2.83,2.92,4.88c-0.63,1.29-2.07,2.16-3.52,2.03c-60.66-0.01-121.32,0-181.98-0.01
		c-1.74,0.1-3.45-1.25-3.61-3.02c-0.4-1.63,0.91-2.89,2.03-3.83c5.93-0.11,11.86-0.08,17.79-0.02c-3.24-5.34-1.25-11.75-2.27-17.55
		c-0.84-4.05-5.98-4.03-7.73-7.39c-1.44-2.28-0.95-5.11-0.24-7.55c1.77-6.27,7.91-10.97,14.44-11.01c0.56-6.48,4.18-12.59,9.6-16.19
		c3.05-2.18,6.74-3.12,10.27-4.2c25.25-7.42,52.79-6.79,77.64,1.91c5.29,1.91,9.74,5.9,12.19,10.95c1.29,2.35,1.64,5.02,2.35,7.56
		c8.57,0,16.22,8.55,14.64,17.1c-1.04,4.6-7.41,4.4-8.46,8.97c-0.63,5.78,0.91,12.01-2.1,17.35c6.16,0.03,12.31-0.01,18.47,0.02
		c0.01-24.44,0.01-48.88,0.01-73.32c-3.77-0.03-7.53,0.04-11.29-0.02c-2.19,0.08-3.83-2.3-3.25-4.35
		C150.77,63.51,152.06,54.74,153.44,45.98 M159.74,50.05c-0.73,6.59-2.04,13.11-2.89,19.68c7.16,0.02,14.32-0.01,21.48,0.02
		c-1.34-6.53-1.86-13.21-3.26-19.73C169.97,50.06,164.85,50,159.74,50.05 M46.15,94.36c-5.63,1.98-9.61,7.49-10.01,13.42
		c3.57,1.67,6.54,4.67,8.03,8.34c1.96,4.75,0.85,9.98,1.14,14.96c26.62,0.02,53.24-0.01,79.86,0.01c0.19-4.55-0.53-9.21,0.7-13.66
		c1.25-4.3,4.55-7.87,8.62-9.68c-0.75-5.66-4.25-11.09-9.75-13.12C99.56,85.71,71.39,85.63,46.15,94.36 M24.71,115.06
		c-2.17,1.45-3.2,3.98-3.64,6.47c4.01,1.64,7.46,4.92,8.61,9.18c1.02,4.3,0.31,8.74,0.6,13.1c0.39,3.63,4.01,6.36,7.58,6.15
		c31.79-0.02,63.57,0,95.36-0.01c3.42-0.06,6.65-2.75,7.07-6.19c0.28-3.94-0.21-7.92,0.29-11.84c0.79-4.76,4.41-8.63,8.83-10.37
		c-0.34-4.16-3.81-8.08-8.13-8.09c-4.24-0.48-8.35,2.89-8.95,7.06c-0.75,4.86,0.36,9.81-0.21,14.69c-0.14,1.62-1.69,2.9-3.31,2.8
		c-29.07,0.01-58.15,0.02-87.22,0c-1.39,0.13-2.3-1.05-3.17-1.93c-0.13-4.75,0.03-9.5-0.03-14.25c-0.1-3.67-2.7-7.13-6.25-8.13
		C29.62,113.2,26.77,113.36,24.71,115.06z" />
	</g>
</svg>