<svg viewBox="10 81.1 980.01 837.8">
	<path
		d="M957.3,719.4c-51.5,144.6-119.7,119.7-119.7,119.7V879c0,22-17.9,39.9-39.9,39.9c-22,0-39.9-17.9-39.9-39.9v-39.9H259.1V879c0,22-17.9,39.9-39.9,39.9c-22,0-39.9-17.9-39.9-39.9v-39.9c-116.4,18.3-256-370.7-99.7-399c156.3-28.3,139.6,179.5,139.6,179.5c315.9-89.8,578.5,0,578.5,0c-15-136.3,34.9-196.2,119.7-179.5C1002.2,456.8,1008.9,574.8,957.3,719.4z M877.5,380.3C734.4,407,757.8,559.8,757.8,559.8c-264.3-51.5-498.7,0-498.7,0c-3.3-93.9-71.5-152.9-139.6-179.5c-117.8-46,16.6-299.2,399-299.2C847.6,81.1,1008,355.9,877.5,380.3z">
	</path>
</svg>