<?xml version="1.0" encoding="utf-8"?>
<!-- Generator: Adobe Illustrator 25.4.1, SVG Export Plug-In . SVG Version: 6.00 Build 0)  -->
<svg version="1.1" id="Layer_1" xmlns="http://www.w3.org/2000/svg" xmlns:xlink="http://www.w3.org/1999/xlink" x="0px"
	y="0px" viewBox="0 0 200 200" style="enable-background:new 0 0 200 200;" xml:space="preserve">
	<style type="text/css">
		.st0 {
			fill: #2BAE68;
		}
	</style>
	<g id="_x23_016dd4ff">
		<path class="st0" d="M84.16,27.49c10.46,0.21,20.92,0.04,31.38,0.08c-0.57,1.34-1.09,2.73-1.01,4.21
		c-0.01,6.13,0.05,12.27-0.01,18.4c-0.08,1.64,0.34,3.22,0.81,4.77c-10.36,0.01-20.72-0.07-31.08,0.04
		c0.61-1.24,0.95-2.58,0.89-3.97c0-6.2-0.02-12.4,0.01-18.6C85.18,30.73,84.99,29,84.16,27.49 M95.72,37.34
		c3.25,0.09,6.5,0.04,9.76,0.02c-0.3-0.97-0.61-1.93-0.88-2.91c-2.09-1.07-4.51-1.02-6.76-0.64C96.44,34.44,96.2,36.07,95.72,37.34
		 M98.34,38.74c0.21,1.8,0.13,3.63-0.84,5.22c-0.87,1.41,0.14,2.86,0.86,4.07c0.04,1.16,0.06,2.33,0.08,3.49
		c1.43,0.01,2.86,0.04,4.3,0.06c0.01-1.18,0.03-2.36,0.06-3.54c1.46-1.74,1.49-4.06,0.01-5.8c-0.04-1.21-0.07-2.41-0.09-3.62
		C101.27,38.65,99.8,38.72,98.34,38.74z" />
		<path class="st0" d="M116.74,27.66c2.68-0.01,5.38-0.3,8.05,0.05c1.47,1.6,0.53,4.08,0.78,6.06c-1.33,0.12-4.01-0.38-3.95,1.69
		c-0.1,3.91-0.18,7.84,0.04,11.74c0.11,1.93,2.6,1.09,3.89,1.42c-0.13,2.03,0.53,4.31-0.55,6.15c-2.72,0.43-5.49,0.07-8.23,0.18
		c-0.56-1.24-1.1-2.55-1-3.95c0.02-6.42-0.01-12.85-0.01-19.27C115.68,30.29,116.2,28.95,116.74,27.66z" />
		<path class="st0" d="M74.61,27.75c2.82-0.26,5.65-0.21,8.48-0.07c0.44,1.32,0.92,2.66,0.86,4.07c0.01,6.14-0.04,12.29,0.02,18.43
		c0.1,1.63-0.33,3.2-0.85,4.73c-2.63,0.01-5.28,0.01-7.92,0.11c-1.39-1.86-0.75-4.28-0.84-6.43c1.24-0.37,3.81,0.58,3.91-1.35
		c0.24-4.3,0.06-8.61,0.02-12.91c-1.31-0.33-2.65-0.53-3.99-0.63C74.29,31.71,74.33,29.72,74.61,27.75z" />
		<path class="st0" d="M99.06,43.25c0.88,0,1.84-0.41,2.66,0.04c1.44,0.46,0.8,2.21,0.89,3.3c-0.47,0.24-1.43,0.72-1.91,0.95
		c-0.44-0.2-1.33-0.59-1.78-0.78c-0.16-0.44-0.5-1.3-0.67-1.74C98.46,44.58,98.86,43.7,99.06,43.25z" />
		<path class="st0" d="M63.57,70.22c0-5.95,3.7-12.45,9.82-13.79c10.57-0.91,21.2-0.02,31.79-0.39c6.9,0.53,13.84-0.54,20.73,0.25
		c6.47,1,10.57,7.7,10.52,13.9c-0.01,10.68,0.03,21.36-0.03,32.04c-24.28,0.06-48.55,0.04-72.82,0.01
		C63.55,91.58,63.57,80.9,63.57,70.22z" />
		<path class="st0" d="M63.58,105.11c24.28-0.05,48.57,0.01,72.85-0.02c-0.04,14.77,0.04,29.55-0.03,44.32
		c0.1,2.83-2.68,4.92-5.38,4.6c-20.45,0.01-40.9-0.02-61.35,0.01c-1.66,0.01-3.52-0.11-4.78-1.35c-1.24-1.28-1.39-3.14-1.36-4.82
		C63.6,133.6,63.52,119.36,63.58,105.11z" />
		<path class="st0" d="M66.16,155.68c1.08-0.53,2.3-0.6,3.48-0.61c20.47,0.04,40.96,0.01,61.43,0.01c2.65-0.26,5.35,1.89,5.33,4.62
		c0.08,2.74,0.08,5.48,0.01,8.23c0.01,2.72-2.68,4.82-5.31,4.55c-20.73,0-41.47-0.01-62.21,0c-2.37,0.21-4.87-1.39-5.21-3.83
		c-0.21-2.98-0.12-5.99-0.08-8.98C63.59,157.99,64.68,156.4,66.16,155.68 M71.28,162.12c-1.76,0.7-1.22,3.33,0.58,3.54
		c3.45,0.16,6.96,0.32,10.4-0.1c2.1-0.41,1.57-3.91-0.61-3.64C78.21,161.86,74.68,161.55,71.28,162.12 M94.21,162.21
		c-1.05,0.4-0.87,2.09-0.44,2.94c2.63,1.15,5.63,0.41,8.42,0.63c1.65,0.01,4.85,0.23,4.37-2.33c-0.02-1.84-2.34-1.52-3.6-1.62
		C100.04,161.95,97.05,161.47,94.21,162.21 M117.23,162.26c-1.29,0.61-1.04,3.14,0.55,3.29c3.41,0.44,6.92,0.26,10.36,0.13
		c2.14-0.21,2.19-3.54,0.03-3.73C124.54,161.9,120.76,161.41,117.23,162.26z" />
	</g>
</svg>