<?xml version="1.0" encoding="UTF-8" ?>
<!DOCTYPE svg PUBLIC "-//W3C//DTD SVG 1.1//EN" "http://www.w3.org/Graphics/SVG/1.1/DTD/svg11.dtd">
<svg width="284pt" height="296pt" viewBox="0 0 284 296" version="1.1" xmlns="http://www.w3.org/2000/svg">
<g id="#f8fafbff">
</g>
<g id="#000000ff">
<path fill="#000000" opacity="1.00" d=" M 116.79 27.77 C 127.62 17.46 146.43 17.45 157.24 27.79 C 164.27 34.69 171.14 41.75 178.18 48.63 C 188.42 48.62 198.67 48.51 208.90 48.68 C 223.03 49.50 235.27 61.83 236.00 75.96 C 236.22 86.17 236.03 96.40 236.10 106.62 C 242.97 113.49 249.87 120.35 256.72 127.26 C 263.70 134.37 266.61 145.17 264.09 154.83 C 262.77 160.16 259.88 165.07 255.95 168.90 C 249.35 175.44 242.87 182.11 236.18 188.57 C 235.89 199.05 236.33 209.56 235.96 220.04 C 234.91 233.91 222.82 245.85 208.92 246.67 C 198.65 246.89 188.37 246.70 178.09 246.77 C 171.02 253.77 164.06 260.90 156.93 267.85 C 148.89 275.50 136.36 277.77 126.11 273.57 C 122.14 272.00 118.58 269.48 115.60 266.43 C 109.03 259.88 102.49 253.31 95.92 246.76 C 85.64 246.71 75.37 246.88 65.10 246.68 C 51.20 245.84 39.09 233.92 38.04 220.04 C 37.69 209.68 38.07 199.30 37.86 188.94 C 30.78 181.14 22.81 174.09 15.68 166.31 C 6.63 155.70 6.89 138.66 16.29 128.35 C 23.39 121.01 30.71 113.88 37.90 106.63 C 37.97 96.41 37.79 86.20 37.99 75.99 C 38.71 61.53 51.51 49.01 65.99 48.63 C 75.94 48.57 85.89 48.59 95.84 48.63 C 102.88 41.74 109.76 34.68 116.79 27.77 M 125.42 84.74 C 110.34 87.46 96.41 95.88 86.91 107.89 C 77.65 119.43 72.64 134.28 73.03 149.07 C 73.28 164.05 79.09 178.82 89.04 190.01 C 98.98 201.31 113.01 208.95 127.93 211.02 C 142.68 213.16 158.15 209.96 170.77 202.02 C 184.50 193.52 194.81 179.64 198.88 164.00 C 202.52 150.29 201.43 135.38 195.77 122.37 C 189.98 108.86 179.36 97.50 166.30 90.78 C 153.84 84.30 139.21 82.19 125.42 84.74 Z" />
</g>
</svg>
