<svg viewBox="0 0 200 200">
	<path class="st0" d="M87.35,1.46c12.29-2.4,25.32-1.29,36.91,3.51c14.18,5.71,26.13,16.72,33.01,30.36
		c7.3,14.2,9.09,31.25,4.36,46.55c-4.03,13.36-12.12,24.98-20.3,36.11c-12.62,16.55-24.23,33.84-36.4,50.72
		c-2.1,3.48-7.74,3.39-9.85-0.04c-9.54-12.45-17.7-25.89-27.31-38.28c-11.53-15.27-24.2-30.53-29.65-49.22
		c-2.51-7.68-2.39-15.82-2.01-23.8c1.61-15.33,9.09-29.9,20.43-40.31C65.17,9.24,75.9,3.69,87.35,1.46 M95.4,44.47
		c-7.39,1.55-13.53,7.52-15.54,14.77c-2.78,9.07,1.72,19.6,10.09,24.01c6.69,3.79,15.59,3.42,21.9-1.01
		c5.74-3.87,9.47-10.76,9.1-17.72c0.17-8.24-5.44-16.04-13-19.07C103.99,43.85,99.57,43.74,95.4,44.47z" />
</svg>