<svg xmlns="http://www.w3.org/2000/svg" version="1.1" viewBox="87.6 40.34 464.76 559.36">
    <g id="#fcf7f4ff">
    </g>
    <g id="#1B8CFDff">
        <path fill="#1B8CFD" opacity="1.00" d=" M 296.46 40.76 C 308.61 39.95 320.82 40.63 332.99 40.39 C 341.65 40.02 350.15 41.88 358.70 42.84 C 401.88 50.33 443.02 70.02 475.49 99.51 C 504.38 125.91 527.01 159.34 539.49 196.51 C 562.05 260.65 554.59 334.47 519.97 392.96 C 512.59 405.83 503.42 417.51 493.68 428.66 C 481.65 442.91 468.04 455.71 454.60 468.60 C 441.35 482.01 427.79 495.12 414.81 508.80 C 388.75 535.08 362.51 561.18 336.34 587.35 C 332.03 591.30 328.27 595.93 323.47 599.30 C 320.13 599.77 315.98 600.40 313.54 597.48 C 276.44 560.25 239.01 523.33 202.16 485.85 C 189.30 472.05 175.64 459.02 162.40 445.60 C 147.51 430.96 133.66 415.09 122.77 397.21 C 105.64 369.78 94.10 338.77 89.80 306.69 C 89.03 298.46 87.82 290.26 87.65 281.98 C 87.11 253.42 91.08 224.60 100.67 197.62 C 112.90 161.66 133.88 128.61 161.48 102.48 C 197.79 67.45 246.30 45.61 296.46 40.76 M 247.81 80.97 C 176.13 107.78 123.31 178.02 116.61 254.13 C 116.57 260.77 115.59 267.37 115.70 274.01 C 116.52 282.90 116.35 291.86 117.67 300.71 C 123.97 346.91 146.61 390.56 180.28 422.76 C 200.71 442.65 220.45 463.24 240.65 483.36 C 267.17 509.88 293.65 536.44 320.25 562.87 C 324.45 560.29 327.18 556.05 330.64 552.65 C 373.04 509.36 416.40 467.04 458.93 423.89 C 470.17 412.99 480.12 400.76 488.42 387.48 C 500.01 368.99 509.50 349.00 514.94 327.80 C 518.38 314.09 520.56 299.40 516.41 285.59 C 515.17 280.49 510.50 277.50 507.14 273.86 C 485.88 252.46 464.25 231.41 443.39 209.61 C 430.17 196.51 417.15 183.21 403.82 170.22 C 391.80 159.18 377.54 150.73 362.46 144.58 C 335.25 133.74 304.37 132.97 276.46 141.65 C 265.94 145.05 255.96 149.93 246.44 155.51 C 243.34 157.19 240.59 160.24 240.73 163.97 C 241.24 167.55 244.16 170.02 246.54 172.46 C 253.51 179.20 260.21 186.21 267.15 192.98 C 271.80 191.18 275.99 188.38 280.69 186.69 C 300.33 178.80 322.76 178.50 342.73 185.39 C 360.51 191.10 375.67 203.58 385.99 219.00 C 398.85 237.86 403.43 261.95 399.03 284.30 C 398.33 288.00 396.65 291.95 398.50 295.60 C 400.07 299.92 404.36 302.31 408.59 303.42 C 422.30 307.48 436.07 311.31 449.73 315.55 C 454.66 317.05 460.27 318.10 463.68 322.34 C 469.20 328.36 468.39 338.91 461.99 343.99 C 457.80 347.55 451.80 348.23 446.64 346.71 C 423.67 340.30 401.01 332.77 377.95 326.68 C 367.78 335.91 358.60 346.18 348.64 355.64 C 345.01 359.32 340.31 363.31 340.64 369.00 C 341.02 375.03 346.18 378.91 350.25 382.69 C 359.46 391.49 368.52 400.46 377.31 409.68 C 379.72 412.35 382.36 415.30 382.64 419.07 C 382.90 422.51 383.02 426.22 381.28 429.34 C 377.85 436.32 368.80 440.38 361.47 437.24 C 356.80 435.39 353.65 431.29 350.09 427.95 C 342.82 420.84 335.96 413.33 329.26 405.68 C 303.89 379.76 277.87 354.49 252.39 328.68 C 235.21 312.91 226.50 289.09 227.28 266.00 C 227.22 251.90 231.26 238.00 237.50 225.43 C 239.40 221.50 242.22 218.09 244.04 214.12 C 237.44 207.00 230.33 200.38 223.56 193.44 C 221.17 191.09 218.83 187.66 215.00 188.25 C 210.59 187.64 208.17 191.92 206.00 194.98 C 196.48 209.41 189.66 225.76 186.78 242.84 C 179.36 282.17 190.48 324.87 217.02 354.99 C 239.64 378.03 262.94 400.41 285.15 423.85 C 297.94 436.73 310.70 449.62 323.45 462.54 C 326.80 465.95 330.95 469.16 332.06 474.07 C 333.20 478.42 330.71 482.72 327.66 485.66 C 324.32 488.90 321.00 493.02 316.03 493.47 C 311.30 494.14 307.28 490.99 304.21 487.80 C 293.06 475.95 281.21 464.80 269.91 453.09 C 242.39 425.92 215.20 398.41 189.00 369.96 C 185.89 366.68 183.39 362.90 180.87 359.17 C 165.70 336.37 156.52 309.73 153.76 282.53 C 153.15 272.68 153.27 262.79 153.71 252.94 C 155.13 237.59 158.84 222.49 164.16 208.03 C 173.61 182.91 189.76 160.46 210.32 143.24 C 235.01 122.40 266.04 109.27 298.11 105.64 C 344.20 99.89 392.41 116.00 425.92 148.15 C 451.99 174.72 478.32 201.04 504.66 227.35 C 510.34 232.88 515.62 238.85 521.74 243.92 C 521.82 239.25 520.82 234.68 519.84 230.14 C 510.06 183.20 482.69 140.46 444.85 111.15 C 408.48 82.67 362.32 66.40 316.01 67.54 C 292.72 68.03 269.71 73.20 247.81 80.97 M 307.52 212.03 C 285.17 214.53 265.25 231.61 259.80 253.48 C 256.49 267.72 258.23 283.42 265.94 296.01 C 269.66 302.42 275.23 307.40 280.38 312.62 C 288.36 320.65 296.40 328.61 304.37 336.65 C 306.90 339.28 310.09 341.88 313.99 341.54 C 318.16 341.83 321.47 338.95 324.15 336.13 C 333.68 326.34 343.44 316.78 353.14 307.15 C 365.76 294.48 371.75 275.53 368.53 257.92 C 366.15 242.33 356.48 228.11 342.99 219.98 C 332.56 213.35 319.81 210.31 307.52 212.03 Z"/>
    </g>
</svg>