<?xml version="1.0" encoding="UTF-8" ?>
<!DOCTYPE svg PUBLIC "-//W3C//DTD SVG 1.1//EN" "http://www.w3.org/Graphics/SVG/1.1/DTD/svg11.dtd">
<svg width="239pt" height="301pt" viewBox="0 0 239 301" version="1.1" xmlns="http://www.w3.org/2000/svg">
<g id="#f8fafbff">
</g>
<g id="#000000ff">
<path fill="#000000" opacity="1.00" d=" M 111.20 27.19 C 114.16 26.84 117.81 26.33 119.95 28.93 C 139.82 49.03 157.69 71.13 173.10 94.83 C 185.52 114.36 196.48 135.14 202.61 157.57 C 208.31 177.83 209.22 199.92 202.08 219.94 C 195.24 239.89 181.30 257.28 163.39 268.38 C 145.06 279.96 122.54 284.62 101.11 281.46 C 79.78 278.49 59.68 267.66 45.37 251.59 C 29.27 233.94 20.68 209.86 21.60 186.02 C 22.51 161.78 31.12 138.55 42.23 117.24 C 58.99 85.78 81.10 57.39 105.86 31.84 C 107.55 30.20 109.09 28.31 111.20 27.19 M 114.34 45.03 C 94.39 66.15 76.15 89.03 61.42 114.12 C 52.35 129.74 44.64 146.32 40.14 163.87 C 35.89 180.60 35.25 198.69 41.14 215.12 C 47.75 234.35 62.33 250.64 80.64 259.45 C 97.67 267.76 117.79 269.44 135.97 264.10 C 154.53 258.81 170.82 246.20 180.76 229.67 C 189.63 215.21 193.27 197.78 191.54 180.95 C 189.56 160.64 181.69 141.46 172.32 123.53 C 156.83 94.78 136.57 68.86 114.34 45.03 Z" />
<path fill="#000000" opacity="1.00" d=" M 117.78 135.63 C 119.71 131.56 125.45 130.17 129.01 132.94 C 132.23 135.13 133.05 139.80 131.06 143.09 C 125.16 154.20 119.20 165.28 113.29 176.39 C 120.15 176.47 127.02 176.25 133.87 176.48 C 139.23 176.68 142.62 183.27 139.83 187.80 C 131.98 202.60 124.08 217.37 116.16 232.13 C 114.48 235.78 109.82 237.66 106.14 235.91 C 102.19 234.31 100.38 229.09 102.53 225.38 C 108.45 214.11 114.52 202.91 120.48 191.66 C 113.76 191.60 107.03 191.75 100.31 191.60 C 96.70 191.59 93.44 188.62 93.03 185.05 C 92.60 182.78 93.70 180.66 94.72 178.72 C 102.45 164.38 110.05 149.97 117.78 135.63 Z" />
</g>
</svg>
