<svg viewBox="0 0 142 276">
    <path
        d=" M 57.45 16.61 C 69.90 13.57 83.63 21.93 86.90 34.28 C 89.79 43.42 86.44 53.97 79.22 60.16 C 72.51 66.07 62.51 68.09 54.13 64.80 C 43.39 61.06 36.19 49.36 37.77 38.08 C 39.02 27.73 47.23 18.74 57.45 16.61 Z" />
    <path
        d=" M 15.31 77.94 C 16.42 72.13 22.08 67.74 27.96 67.95 C 50.98 67.91 74.00 67.94 97.02 67.94 C 101.43 67.74 105.91 69.83 108.33 73.56 C 110.08 76.03 110.45 79.11 111.01 82.00 C 114.83 102.32 118.66 122.63 122.50 142.94 C 123.24 147.18 123.37 151.98 120.78 155.66 C 117.72 160.35 111.40 162.54 106.11 160.64 C 101.48 159.14 98.08 154.77 97.52 149.97 C 94.91 133.84 92.39 117.71 89.75 101.59 C 89.72 154.07 89.84 206.55 89.80 259.03 C 90.06 265.92 83.92 272.16 77.02 271.96 C 70.12 272.11 64.01 265.86 64.30 258.96 C 64.26 233.00 64.30 207.03 64.28 181.07 C 63.51 181.07 61.98 181.06 61.22 181.06 C 61.20 207.05 61.25 233.04 61.20 259.03 C 61.46 266.05 55.09 272.34 48.08 271.96 C 41.30 271.93 35.41 265.73 35.69 258.96 C 35.67 208.29 35.76 157.63 35.76 106.96 C 35.73 105.14 35.66 103.32 35.58 101.50 C 33.40 117.37 30.57 133.15 28.16 148.99 C 27.74 153.29 25.48 157.51 21.62 159.63 C 16.42 162.76 9.12 161.37 5.40 156.58 C 2.19 152.86 2.16 147.57 2.99 142.99 C 7.13 121.31 11.12 99.60 15.31 77.94 Z" />
</svg>