<?xml version="1.0" encoding="utf-8"?>
<!-- Generator: Adobe Illustrator 25.4.1, SVG Export Plug-In . SVG Version: 6.00 Build 0)  -->
<svg version="1.1" id="Layer_1" xmlns="http://www.w3.org/2000/svg" xmlns:xlink="http://www.w3.org/1999/xlink" x="0px"
	y="0px" viewBox="0 0 200 200" style="enable-background:new 0 0 200 200;" xml:space="preserve">
	<style type="text/css">
		.st0 {
			fill: #2BAE68;
		}
	</style>
	<g id="_x23_000000ff">
		<path class="st0" d="M40.2,0.01c4.23,0,8.46,0,12.7,0c-0.01,3.41-0.01,6.82,0.01,10.23c13.52,0.01,27.03,0.01,40.55,0.01
		c0.02-3.38,0.03-6.77,0.01-10.15c4.35-0.15,8.71-0.11,13.07-0.03c-0.02,3.39-0.02,6.78,0.01,10.18
		c13.54-0.01,27.08,0.01,40.62-0.01c0.01-3.4,0.01-6.81,0.01-10.21c4.24-0.03,8.48-0.01,12.71-0.02c0.15,3.52-0.37,7.1,0.36,10.58
		c11.89-0.05,23.78-0.01,35.67-0.02c0.01,54.73,0,109.47,0.01,164.21c0.28,8.06-3.79,16.12-10.42,20.7
		c-4.61,3.17-10.32,4.73-15.89,4.5c-55.17-0.02-110.36,0.02-165.53-0.02c-0.02-63.23-0.01-126.45,0-189.69
		c12.03-0.06,24.07-0.01,36.1-0.02C40.22,6.84,40.19,3.43,40.2,0.01 M106.53,22.95c-0.02,3.59-0.03,7.19,0.01,10.78
		c-4.35,0.37-8.73,0.19-13.08-0.01c0.03-3.59,0.02-7.18,0-10.77c-13.52,0-27.03-0.01-40.55,0.01c-0.02,3.62-0.02,7.24,0,10.85
		c-4.24,0.19-8.49,0.19-12.72-0.01c0.01-3.62,0.02-7.23-0.01-10.85c-7.78-0.01-15.56-0.02-23.35,0.01c-0.01,9.04-0.01,18.09,0,27.14
		c55.45,0.04,110.9,0.01,166.35,0.02c0.02-9.05,0.02-18.12,0.01-27.17c-7.77,0-15.54-0.01-23.31,0.01
		c-0.02,3.64,0.02,7.28-0.02,10.92c-4.23-0.03-8.48,0.14-12.7-0.1c0.01-3.61,0.01-7.22,0-10.83
		C133.62,22.96,120.08,22.96,106.53,22.95 M16.85,62.96c-0.02,41.44-0.02,82.88,0.01,124.33c51.11,0.02,102.22-0.01,153.33,0.01
		c2.03,0.07,4.07-0.26,5.93-1.09c4.32-1.67,7.26-6.26,7.09-10.86c-0.02-37.46,0.02-74.93-0.02-112.4
		C127.74,62.96,72.29,62.94,16.85,62.96z" />
		<path class="st0" d="M29.43,77.75c13.16-0.01,26.33-0.01,39.49,0c-0.01,13.17,0.01,26.34,0,39.51c-13.16,0.01-26.32,0.01-39.48,0
		C29.42,104.09,29.43,90.92,29.43,77.75 M41.86,90.55c0.01,4.76,0.01,9.52,0,14.28c4.77,0.12,9.55,0.01,14.33,0.06
		c0.04-4.8,0.04-9.61-0.01-14.41C51.41,90.54,46.63,90.43,41.86,90.55z" />
		<path class="st0" d="M80.13,77.74c13.26,0.02,26.52-0.01,39.78,0.02c-0.03,13.27,0.04,26.53-0.03,39.8
		c-13.24,0.01-26.49-0.01-39.73,0.01C80.1,104.29,80.13,91.02,80.13,77.74 M92.83,90.5c-0.03,4.79-0.03,9.59,0,14.38
		c4.77,0.01,9.55,0.01,14.32,0c0.02-4.8,0.02-9.59,0-14.38C102.38,90.49,97.61,90.49,92.83,90.5z" />
		<path class="st0" d="M131.04,77.76c13.17-0.02,26.34-0.01,39.51-0.01c0.02,13.16,0.01,26.34,0.01,39.5
		c-13.17,0.02-26.34,0.03-39.52-0.01C131.04,104.08,131.03,90.92,131.04,77.76 M143.45,90.57c0.01,4.75,0.01,9.49,0,14.24
		c4.85,0.15,9.7,0.04,14.55,0.07c0.05-4.79,0.05-9.59,0-14.38C153.15,90.53,148.3,90.41,143.45,90.57z" />
		<path class="st0" d="M29.44,131.47c13.15-0.02,26.31-0.01,39.47-0.01c0.01,13.15,0.01,26.3,0,39.46c-13.16,0.01-26.32,0.01-39.48,0
		C29.43,157.78,29.42,144.62,29.44,131.47 M42.18,158.22c4.66,0.32,9.37,0.35,14.03-0.02c0.03-4.68-0.01-9.36,0.02-14.05
		c-4.68-0.03-9.36,0.01-14.04-0.02C42.15,148.83,42.15,153.53,42.18,158.22z" />
		<path class="st0" d="M80.13,131.47c13.26,0.01,26.52-0.02,39.78,0.02c0.01,13.14-0.01,26.27,0.01,39.41
		c-13.26,0.08-26.53,0.02-39.79,0.03C80.12,157.77,80.12,144.62,80.13,131.47 M92.79,144.22c0.09,4.74-0.07,9.48,0.09,14.22
		c4.75-0.03,9.5-0.01,14.25-0.01c0.05-4.86,0.1-9.72-0.03-14.58C102.32,143.86,97.55,143.71,92.79,144.22z" />
		<path class="st0"
			d="M131.04,131.47c13.17-0.02,26.34-0.01,39.52,0c-0.05,13.26,0.08,26.52-0.07,39.78
		c-12.18-0.01-24.35-0.02-36.52,0c-0.99,0.02-1.98-0.12-2.93-0.34C131.05,157.77,131.02,144.62,131.04,131.47 M143.78,144.15
		c0.01,4.67,0,9.35,0.01,14.02c4.75,0,9.49,0.03,14.24-0.02c-0.01-4.66,0-9.33,0-13.99C153.28,144.13,148.53,144.14,143.78,144.15z" />
	</g>
</svg>