<?xml version="1.0" encoding="utf-8"?>
<!-- Generator: Adobe Illustrator 25.4.1, SVG Export Plug-In . SVG Version: 6.00 Build 0)  -->
<svg version="1.1" id="Layer_1" xmlns="http://www.w3.org/2000/svg" xmlns:xlink="http://www.w3.org/1999/xlink" x="0px"
	y="0px" viewBox="0 0 200 200" style="enable-background:new 0 0 200 200;" xml:space="preserve">
	<style type="text/css">
		.st0 {
			fill: #2BAE68;
		}
	</style>
	<g id="_x23_231f20ff">
		<path class="st0" d="M88.15,1.96c11.64-4.04,25.11-1.69,34.91,5.69c8.2,5.93,13.8,15.28,15.28,25.29
		c2.72,15.72-5.67,32.56-19.79,39.95c-4.67,2.88-10.32,3.45-15.03,6.24c5.79,1.17,11.56,2.54,17.13,4.54
		c16.28,6.3,29.17,19.39,37.7,34.38c13.78,24.6,17.68,54.36,11.78,81.83c-41.11,0.22-82.21,0.02-123.31,0.09
		c-5.61-0.13-11.23,0.28-16.83-0.22c-1.73-6.61-2.27-13.46-2.53-20.26c-0.74-4.99,0.28-9.96,0.3-14.94
		c2.01-22.97,10.32-45.96,26.1-63.09c6.04-6.48,13.14-12.07,21.18-15.87c6.71-3.4,14.19-4.64,21.38-6.61
		c-3.87-2.16-8.29-2.95-12.29-4.8c-9.56-4.29-17.23-12.62-20.63-22.54c-2.93-8.02-2.98-16.99-0.21-25.06
		C67.07,15.08,76.59,5.59,88.15,1.96z" />
	</g>
</svg>