<?xml version="1.0" encoding="UTF-8" ?>
<!DOCTYPE svg PUBLIC "-//W3C//DTD SVG 1.1//EN" "http://www.w3.org/Graphics/SVG/1.1/DTD/svg11.dtd">
<svg width="256pt" height="274pt" viewBox="0 0 256 274" version="1.1" xmlns="http://www.w3.org/2000/svg">
<g id="#f8fafbff">
</g>
<g id="#000000ff">
<path fill="#000000" opacity="1.00" d=" M 85.60 6.87 C 89.72 6.25 93.88 6.00 98.05 6.00 C 144.70 5.99 191.35 6.02 238.00 5.98 C 240.56 6.05 243.41 5.66 245.65 7.19 C 247.94 8.60 249.24 11.29 249.12 13.95 C 249.13 60.96 249.14 107.98 249.11 154.99 C 249.09 174.02 241.75 192.89 228.96 206.97 C 214.66 222.99 193.52 232.70 172.02 232.87 C 142.67 232.93 113.32 232.88 83.97 232.90 C 78.70 232.83 73.43 234.20 68.93 236.96 C 55.90 244.96 42.96 253.15 29.88 261.08 C 25.06 264.03 18.26 259.62 18.88 254.02 C 18.87 197.35 18.86 140.69 18.88 84.02 C 18.88 65.65 25.68 47.41 37.67 33.50 C 49.77 19.26 67.10 9.57 85.60 6.87 M 130.34 50.39 C 127.62 51.84 126.25 55.00 126.49 58.01 C 126.52 86.67 126.48 115.34 126.51 144.00 C 126.21 148.50 130.64 152.49 135.08 151.70 C 138.77 151.23 141.68 147.72 141.49 144.01 C 141.51 115.03 141.52 86.04 141.48 57.07 C 141.84 51.52 135.06 47.42 130.34 50.39 M 131.40 167.53 C 127.73 168.81 125.53 173.21 126.88 176.89 C 128.08 180.82 132.86 183.18 136.68 181.54 C 140.35 180.23 142.48 175.77 141.08 172.11 C 139.85 168.26 135.17 165.98 131.40 167.53 Z" />
</g>
</svg>
