<svg viewBox="0 0 414.9 414.9">
	<path d="M299.5,60.7c-5-12-12.2-22.7-21.3-31.9c-9.2-9.2-19.9-16.4-31.9-21.3c-12-5-24.6-7.5-37.5-7.5c-12.9,0-25.6,2.5-37.5,7.5
	c-12,5-22.7,12.2-31.9,21.3C130.2,38,123,48.7,118,60.7c-5,12-7.5,24.6-7.5,37.5c0,8.6,3.3,16.5,9.5,23c0,0,0.1,0.1,0.1,0.1
	c6.2,6.2,14.4,9.6,23.2,9.6c8.7,0,17-3.4,23.2-9.6c6.1-6.1,9.5-14.2,9.6-22.8c0.3-3.9,0.8-8.7,2.5-12.7c3-7.2,10.6-14.8,17.8-17.8
	c3.9-1.6,8.1-2.5,12.4-2.5c4.3,0,8.5,0.8,12.4,2.5c4,1.7,7.6,4.1,10.7,7.2c3.1,3.1,5.5,6.7,7.1,10.6c1.6,3.9,2.5,8.1,2.5,12.4v24.2
	c0,6.3-2.5,12.3-7,16.8c-4.5,4.5-10.5,7-16.8,7h-67.8c-23.5,0-41.9,18.4-41.9,41.9V373c0,23.5,18.4,41.9,41.9,41.9h115.4
	c11.1,0,21.6-4.4,29.6-12.3c7.9-7.9,12.3-18.4,12.3-29.5V98.2C307,85.3,304.5,72.7,299.5,60.7z M209.5,221.8c0.1,0,0.2,0,0.3,0
	c17.4,0.1,31.5,14.2,31.5,31.6c0,17.4-14.1,31.6-31.5,31.6c0,0-0.1,0-0.1,0c0,0-0.1,0-0.1,0c-17.4-0.1-31.5-14.2-31.5-31.6
	C178.1,236,192.2,221.9,209.5,221.8z M216.7,375.8h-18.6c-5,0-9-4-9-9s4-9,9-9h18.6c5,0,9,4,9,9S221.7,375.8,216.7,375.8z
	 M237.7,351.8h-60.5c-5,0-9-4-9-9s4-9,9-9h60.5c5,0,9,4,9,9S242.7,351.8,237.7,351.8z" />
</svg>