<?xml version="1.0" encoding="iso-8859-1"?>
<!-- Generator: Adobe Illustrator 17.1.0, SVG Export Plug-In . SVG Version: 6.00 Build 0)  -->
<!DOCTYPE svg PUBLIC "-//W3C//DTD SVG 1.1//EN" "http://www.w3.org/Graphics/SVG/1.1/DTD/svg11.dtd">
<svg version="1.1" id="Capa_1" xmlns="http://www.w3.org/2000/svg" xmlns:xlink="http://www.w3.org/1999/xlink" x="0px" y="0px"
	 viewBox="0 0 414.855 414.855" style="enable-background:new 0 0 414.855 414.855;" xml:space="preserve">
<path id="XMLID_91_" d="M246.701,342.808c0,4.971-4.029,9-9,9h-60.545c-4.971,0-9-4.029-9-9s4.029-9,9-9h60.545
	C242.672,333.808,246.701,337.837,246.701,342.808z M216.742,357.819h-18.628c-4.971,0-9,4.029-9,9s4.029,9,9,9h18.628
	c4.971,0,9-4.029,9-9S221.713,357.819,216.742,357.819z M196.207,265.52c-3.52-3.51-9.217-3.503-12.728,0.017
	c-3.51,3.52-3.502,9.218,0.017,12.728l0.737,0.735c1.757,1.752,4.056,2.628,6.355,2.628c2.307,0,4.614-0.882,6.373-2.645
	c3.51-3.52,3.502-9.218-0.017-12.728L196.207,265.52z M306.982,98.236v274.765c0,11.126-4.361,21.616-12.28,29.538
	c-7.94,7.942-18.443,12.316-29.574,12.316h-115.4c-23.47,0-41.854-18.385-41.854-41.854V188.164
	c0-23.471,18.384-41.856,41.854-41.856h67.849c6.321,0,12.303-2.501,16.844-7.043c4.521-4.521,7.01-10.492,7.01-16.811V98.236
	c0-4.316-0.828-8.491-2.459-12.41c-1.664-3.995-4.063-7.577-7.134-10.647c-3.093-3.092-6.687-5.504-10.682-7.169
	c-3.922-1.632-8.099-2.46-12.409-2.46c-4.311,0-8.487,0.828-12.414,2.462c-7.166,2.983-14.825,10.644-17.813,17.817
	c-1.663,3.994-2.194,8.869-2.46,12.735c-0.084,8.605-3.486,16.696-9.599,22.812c-6.218,6.216-14.447,9.637-23.175,9.637
	c-8.729,0-16.959-3.422-23.174-9.634c-0.046-0.047-0.093-0.094-0.138-0.142c-6.191-6.466-9.463-14.42-9.463-23.001
	c0-12.938,2.519-25.559,7.487-37.512c4.978-11.98,12.16-22.711,21.344-31.894c9.183-9.186,19.914-16.367,31.894-21.345
	C183.189,2.519,195.81,0,208.747,0c12.936,0,25.556,2.519,37.51,7.487c11.98,4.977,22.711,12.159,31.895,21.345
	c9.185,9.183,16.367,19.914,21.345,31.893C304.464,72.676,306.982,85.297,306.982,98.236z M288.982,98.236
	c0-10.557-2.055-20.854-6.107-30.604c-4.069-9.792-9.94-18.563-17.451-26.073c-7.51-7.512-16.281-13.382-26.074-17.45
	C229.596,20.056,219.3,18,208.747,18c-10.554,0-20.851,2.056-30.604,6.108c-9.792,4.069-18.564,9.939-26.073,17.45
	c-7.51,7.509-13.381,16.281-17.451,26.074c-4.054,9.753-6.109,20.049-6.109,30.604c0,3.932,1.438,7.36,4.394,10.479
	c2.807,2.772,6.49,4.298,10.381,4.298c3.921,0,7.632-1.55,10.447-4.364c2.791-2.792,4.329-6.49,4.329-10.412
	c0-0.199,0.007-0.398,0.02-0.598c0.352-5.291,1.104-12.202,3.822-18.729c4.841-11.623,15.898-22.68,27.513-27.516
	c6.132-2.551,12.635-3.844,19.331-3.844c6.695,0,13.198,1.293,19.327,3.843c6.18,2.575,11.727,6.295,16.491,11.058
	c4.743,4.742,8.452,10.279,11.024,16.457c2.549,6.122,3.842,12.625,3.842,19.329v24.218c0,11.126-4.362,21.616-12.282,29.537
	c-7.941,7.942-18.443,12.316-29.573,12.316h-67.849c-13.376,0-23.854,10.479-23.854,23.856v184.837
	c0,13.376,10.478,23.854,23.854,23.854h115.4c6.322,0,12.303-2.501,16.843-7.043c4.521-4.521,7.011-10.492,7.011-16.812V98.236z
	 M230.634,223.311c-3.515-3.514-9.213-3.514-12.728,0c-3.515,3.515-3.515,9.214,0,12.729l0.736,0.736
	c1.757,1.757,4.061,2.636,6.364,2.636s4.606-0.879,6.364-2.636c3.515-3.515,3.515-9.214,0-12.729L230.634,223.311z M268.506,251.152
	c0,33.623-27.309,60.987-60.911,61.078c-0.067,0.001-0.135,0.002-0.202,0.002c-0.071,0-0.143-0.001-0.213-0.003
	c-33.566-0.133-60.83-27.48-60.83-61.077c0-33.576,27.232-60.912,60.77-61.078c0.169-0.006,0.336-0.005,0.503-0.001
	C241.211,190.181,268.506,217.539,268.506,251.152z M199.573,255.477c-7.747-13.774-15.728-27.965-14.231-41.3
	c-12.565,7.534-20.992,21.288-20.992,36.976c0,23.024,18.158,41.888,40.905,43.024c4.901-2.844,5.722-5.482,6.012-6.413
	C213.57,280.363,206.134,267.142,199.573,255.477z M250.506,251.152c0-23.051-18.198-41.931-40.981-43.028
	c-4.84,2.812-5.652,5.418-5.938,6.337c-2.291,7.358,5.129,20.552,11.676,32.191c7.779,13.832,15.794,28.083,14.241,41.481
	C242.074,280.602,250.506,266.844,250.506,251.152z"/>
<g>
</g>
<g>
</g>
<g>
</g>
<g>
</g>
<g>
</g>
<g>
</g>
<g>
</g>
<g>
</g>
<g>
</g>
<g>
</g>
<g>
</g>
<g>
</g>
<g>
</g>
<g>
</g>
<g>
</g>
</svg>
