<svg version="1.1" xmlns="http://www.w3.org/2000/svg" xmlns:xlink="http://www.w3.org/1999/xlink" x="0px" y="0px"
	viewBox="0 0 219 278" style="enable-background:new 0 0 219 278;" xml:space="preserve">
	<g>
		<path d="M34.8,28.8C41.7,22,51.3,18,61,18c33.3,0,66.7,0,100,0c9.2,0,18.3,3.6,25.2,9.8C194.4,35.1,199.2,46,199,57
		c0,64.4,0,128.7,0,193.1c0.3,6.2-7.7,10.3-12.5,6.5c-25.2-17.5-50.2-35.3-75.4-52.7c-23.8,16.6-47.5,33.3-71.3,49.9
		c-2.9,1.9-5.8,4.8-9.7,4.3c-4.3-0.4-7.5-4.6-7-8.9c0-64.4,0-128.7,0-193.1C23,45.8,27.4,35.8,34.8,28.8" />
	</g>
</svg>