<?xml version="1.0" encoding="UTF-8" ?>
<!DOCTYPE svg PUBLIC "-//W3C//DTD SVG 1.1//EN" "http://www.w3.org/Graphics/SVG/1.1/DTD/svg11.dtd">
<svg width="219pt" height="278pt" viewBox="0 0 219 278" version="1.1" xmlns="http://www.w3.org/2000/svg">
<g id="#f8fafbff">
</g>
<g id="#000000ff">
<path fill="#000000" opacity="1.00" d=" M 34.78 28.77 C 41.72 22.02 51.28 18.03 60.98 18.01 C 94.32 18.00 127.67 17.99 161.02 18.01 C 170.24 18.03 179.34 21.64 186.18 27.79 C 194.41 35.08 199.25 46.00 199.00 57.00 C 198.98 121.36 199.04 185.72 198.97 250.07 C 199.26 256.25 191.31 260.35 186.43 256.54 C 161.27 239.00 136.22 221.29 111.01 203.82 C 87.19 220.38 63.47 237.08 39.70 253.69 C 36.79 255.64 33.86 258.53 30.05 257.95 C 25.75 257.54 22.55 253.31 23.00 249.07 C 23.01 184.71 22.99 120.35 23.01 55.98 C 23.01 45.80 27.43 35.78 34.78 28.77 M 39.02 55.93 C 39.00 115.41 38.95 174.90 39.05 234.38 C 61.71 219.05 83.92 203.02 106.43 187.45 C 109.10 185.52 112.91 185.54 115.57 187.46 C 138.10 203.00 160.27 219.06 182.95 234.35 C 183.06 175.22 182.97 116.09 183.00 56.96 C 183.67 44.17 171.73 32.85 159.00 33.99 C 126.31 34.03 93.62 33.96 60.92 34.02 C 49.31 33.96 38.95 44.31 39.02 55.93 Z" />
</g>
</svg>
