<?xml version="1.0" encoding="UTF-8" ?>
<!DOCTYPE svg PUBLIC "-//W3C//DTD SVG 1.1//EN" "http://www.w3.org/Graphics/SVG/1.1/DTD/svg11.dtd">
<svg width="278pt" height="238pt" viewBox="0 0 278 238" version="1.1" xmlns="http://www.w3.org/2000/svg">
<g id="#f8fafbff">
</g>
<g id="#000000ff">
<path fill="#000000" opacity="1.00" d=" M 176.23 13.21 C 179.56 10.08 184.56 9.12 188.90 10.43 C 193.57 11.73 197.34 14.98 200.65 18.39 C 217.80 35.55 234.96 52.69 252.11 69.85 C 256.11 73.88 260.53 77.74 262.95 83.00 C 268.54 94.10 266.20 108.54 257.30 117.25 C 237.98 136.62 218.62 155.96 199.26 175.31 C 194.65 180.00 187.90 183.95 181.14 181.90 C 174.70 180.03 171.31 173.21 170.86 166.93 C 170.43 159.28 170.78 151.62 170.66 143.96 C 134.63 145.26 98.98 156.81 69.25 177.26 C 51.63 189.27 36.17 204.33 23.32 221.33 C 19.52 226.70 10.04 223.69 10.05 217.11 C 9.83 191.02 15.94 164.90 27.61 141.56 C 41.91 112.92 64.60 88.57 92.06 72.14 C 115.76 57.92 143.06 49.83 170.67 48.65 C 170.69 41.78 170.62 34.91 170.69 28.04 C 170.80 22.71 172.15 16.94 176.23 13.21 Z" />
</g>
</svg>
