<?xml version="1.0" encoding="UTF-8" ?>
<!DOCTYPE svg PUBLIC "-//W3C//DTD SVG 1.1//EN" "http://www.w3.org/Graphics/SVG/1.1/DTD/svg11.dtd">
<svg viewBox="0 0 225 225" version="1.1" xmlns="http://www.w3.org/2000/svg">
    <g id="#000000ff">
        <path
            d=" M 35.83 7.92 C 34.98 5.49 38.25 3.17 40.28 4.68 C 43.56 7.31 46.29 10.55 49.32 13.46 C 59.00 5.72 73.56 4.94 83.68 12.27 C 85.72 13.96 89.25 15.73 88.36 18.90 C 85.19 23.04 81.05 26.33 77.50 30.16 C 80.41 34.95 79.95 41.80 75.29 45.33 C 71.46 48.74 65.87 48.43 61.61 46.02 C 58.11 49.40 54.88 53.06 51.21 56.25 C 50.05 57.50 47.97 57.27 46.96 55.96 C 38.95 48.16 36.51 35.36 40.85 25.09 C 42.04 22.12 43.98 19.55 45.30 16.65 C 42.36 17.65 40.45 20.17 38.31 22.26 C 32.61 28.01 26.87 33.73 21.14 39.44 C 22.63 43.02 22.58 46.94 21.13 50.52 C 30.61 59.97 40.09 69.42 49.53 78.90 C 56.32 79.02 63.13 78.55 69.89 79.11 C 72.99 81.49 71.07 86.06 71.57 89.38 C 79.71 89.37 87.86 89.38 96.00 89.38 C 96.07 86.02 95.67 82.62 96.29 79.30 C 96.96 77.32 99.29 77.55 100.96 77.47 C 110.62 77.52 120.29 77.45 129.95 77.50 C 133.07 77.35 135.78 79.02 138.20 80.78 C 140.53 79.05 143.13 77.38 146.16 77.52 C 156.09 77.44 166.02 77.51 175.95 77.48 C 177.37 77.56 179.44 77.46 180.03 79.10 C 180.69 82.48 180.27 85.96 180.33 89.38 C 193.91 89.40 207.49 89.33 221.08 89.40 C 222.86 89.14 224.08 90.36 225.00 91.74 L 225.00 111.27 C 224.17 112.32 223.48 113.86 221.88 113.72 C 217.08 114.00 212.25 113.74 207.44 113.80 C 207.44 144.87 207.44 175.94 207.44 207.01 C 207.43 211.40 207.58 215.79 207.15 220.16 C 201.21 221.25 195.10 220.77 189.10 220.68 C 186.63 220.71 186.18 217.98 186.31 216.06 C 186.33 192.77 186.33 169.49 186.31 146.20 C 156.19 146.25 126.06 146.22 95.94 146.22 C 95.91 169.83 95.97 193.44 95.91 217.04 C 96.25 219.28 94.21 221.08 92.03 220.76 C 68.66 220.83 45.28 220.75 21.90 220.80 C 20.18 220.77 17.92 220.91 17.09 218.99 C 16.88 217.66 16.79 216.31 16.81 214.97 C 16.89 181.25 16.79 147.53 16.86 113.81 C 12.94 113.76 9.00 113.98 5.08 113.72 C 3.23 113.74 1.75 111.93 2.02 110.13 C 2.01 104.09 1.85 98.05 2.11 92.02 C 2.18 90.11 4.26 89.29 5.91 89.40 C 12.77 89.30 19.64 89.42 26.50 89.38 C 26.99 86.05 25.11 81.51 28.19 79.09 C 32.36 78.60 36.58 78.98 40.77 78.90 C 32.81 70.86 24.77 62.90 16.81 54.86 C 13.59 55.95 9.98 56.80 6.79 55.14 C 2.79 53.65 0.53 49.61 0.00 45.55 L 0.00 43.69 C 0.79 40.16 2.62 36.62 6.06 35.08 C 9.35 33.08 13.34 33.86 16.78 34.99 C 24.32 27.46 31.83 19.90 39.39 12.39 C 38.17 10.94 36.51 9.74 35.83 7.92 M 62.81 13.85 C 54.69 15.37 47.93 21.94 45.72 29.83 C 43.88 36.49 45.30 43.84 49.33 49.42 C 60.00 38.99 70.48 28.37 81.05 17.85 C 75.81 14.22 69.12 12.32 62.81 13.85 M 66.17 41.78 C 68.21 41.74 70.56 41.71 71.98 39.99 C 73.39 38.59 73.09 36.49 73.09 34.69 C 70.65 36.92 68.25 39.21 66.17 41.78 M 9.40 40.30 C 6.01 41.61 5.02 46.62 8.15 48.77 C 10.95 51.52 16.48 48.98 16.04 45.02 C 16.44 41.59 12.48 38.99 9.40 40.30 M 102.22 83.59 C 102.22 85.51 102.22 87.44 102.22 89.37 C 113.24 89.38 124.27 89.39 135.30 89.36 C 135.14 86.52 133.15 83.60 130.05 83.64 C 120.77 83.50 111.49 83.63 102.22 83.59 M 141.01 89.33 C 152.06 89.44 163.10 89.33 174.14 89.39 C 174.14 87.44 174.13 85.50 174.14 83.56 C 164.78 83.69 155.41 83.42 146.06 83.68 C 142.95 83.70 141.51 86.71 141.01 89.33 M 32.63 85.05 C 32.63 86.49 32.62 87.94 32.61 89.38 C 43.56 89.38 54.52 89.36 65.48 89.39 C 65.48 87.96 65.49 86.52 65.50 85.09 C 54.54 85.08 43.59 85.15 32.63 85.05 M 8.22 95.48 C 8.26 99.52 8.25 103.57 8.23 107.62 C 78.41 107.62 148.59 107.62 218.77 107.62 C 218.74 103.57 218.74 99.52 218.77 95.48 C 148.59 95.47 78.41 95.47 8.22 95.48 M 23.01 113.81 C 23.06 123.62 23.06 133.43 23.01 143.24 C 45.26 143.23 67.50 143.26 89.75 143.23 C 89.69 133.43 89.69 123.62 89.74 113.82 C 67.50 113.81 45.26 113.82 23.01 113.81 M 95.94 113.82 C 95.93 122.54 95.93 131.27 95.93 140.00 C 126.06 139.98 156.19 139.98 186.32 140.00 C 186.33 131.27 186.30 122.55 186.34 113.82 C 156.21 113.81 126.07 113.82 95.94 113.82 M 192.44 214.64 C 195.40 214.64 198.36 214.65 201.32 214.64 C 201.30 181.04 201.31 147.43 201.32 113.82 C 198.37 113.81 195.42 113.82 192.48 113.81 C 192.45 147.42 192.52 181.03 192.44 214.64 M 23.03 149.39 C 23.06 159.24 23.03 169.10 23.05 178.95 C 45.27 178.98 67.48 178.93 89.70 178.98 C 89.72 169.10 89.71 159.23 89.71 149.36 C 67.48 149.42 45.25 149.36 23.03 149.39 M 23.04 185.12 C 23.02 194.96 23.06 204.80 23.02 214.64 C 45.25 214.65 67.48 214.64 89.71 214.64 C 89.71 204.80 89.71 194.97 89.71 185.13 C 67.49 185.12 45.27 185.12 23.04 185.12 Z" />
        <path
            d=" M 64.91 120.91 C 69.33 119.65 75.15 120.40 77.15 125.13 C 79.85 130.05 75.64 136.76 70.05 136.53 C 60.75 136.55 51.44 136.58 42.13 136.51 C 36.52 136.44 32.84 129.37 35.75 124.63 C 37.76 120.63 42.96 119.51 46.92 120.88 C 48.32 121.63 48.78 123.66 47.93 124.97 C 46.97 127.06 44.33 126.19 42.53 126.73 C 40.16 126.76 40.64 130.87 43.00 130.41 C 52.05 130.45 61.11 130.57 70.15 130.35 C 71.99 130.37 72.18 127.92 71.04 126.86 C 69.02 126.49 66.96 126.39 64.94 126.03 C 64.43 124.35 64.39 122.60 64.91 120.91 Z" />
        <path
            d=" M 40.29 156.51 C 42.98 155.65 47.98 155.17 48.33 159.03 C 48.61 162.49 44.64 162.18 42.30 162.47 C 40.12 162.76 40.74 166.46 42.94 165.98 C 52.29 165.95 61.64 166.16 70.98 165.87 C 71.24 165.40 71.76 164.47 72.03 164.00 C 70.70 160.85 66.41 163.54 64.81 160.84 C 63.70 159.19 64.61 156.82 66.48 156.24 C 70.71 155.08 75.96 157.06 77.41 161.45 C 79.57 166.33 75.25 172.46 69.95 172.22 C 60.97 172.29 51.99 172.24 43.01 172.24 C 38.57 172.54 34.47 168.40 34.78 163.96 C 34.74 160.61 37.15 157.55 40.29 156.51 Z" />
        <path
            d=" M 35.73 195.97 C 37.76 191.99 42.74 191.03 46.75 192.03 C 48.31 193.00 48.77 195.09 47.89 196.69 C 46.36 198.31 44.00 197.85 42.02 198.19 C 40.03 198.85 41.01 201.97 42.94 201.76 C 52.15 201.87 61.37 201.82 70.59 201.77 C 70.94 201.33 71.65 200.46 72.00 200.02 C 71.74 199.56 71.22 198.62 70.96 198.15 C 68.78 197.84 65.43 198.63 64.57 195.90 C 63.78 194.47 64.84 192.85 65.99 192.02 C 70.22 190.91 75.66 192.23 77.26 196.74 C 79.76 201.70 75.37 207.90 70.03 208.00 C 60.68 208.01 51.32 208.19 41.99 207.91 C 36.47 207.48 32.88 200.74 35.73 195.97 Z" />
    </g>
</svg>