<?xml version="1.0" encoding="utf-8"?>
<!-- Generator: Adobe Illustrator 25.4.1, SVG Export Plug-In . SVG Version: 6.00 Build 0)  -->
<svg version="1.1" id="Layer_1" xmlns="http://www.w3.org/2000/svg" xmlns:xlink="http://www.w3.org/1999/xlink" x="0px"
	y="0px" viewBox="0 0 200 200" style="enable-background:new 0 0 200 200;" xml:space="preserve">
	<style type="text/css">
		.st0 {
			fill: #2BAE68;
		}
	</style>
	<g>
		<path class="st0" d="M190.88,101.21c-5.09-8.77-12.83-16.3-22.46-19.84c-3.09-1.02-6.28-1.68-9.43-2.49l9.82-4.15
		c7.79-4.68,12.26-14.23,10.68-23.2c-0.97-5.95-4.43-11.47-9.36-14.94c-4.89-3.47-11.2-5.06-17.11-3.9
		c-6.64,1.17-12.68,5.4-15.97,11.3c-2.83,4.66-3.34,10.35-2.54,15.65c1.25,6.5,5.51,12.34,11.3,15.53c2.79,1.62,6,2.21,8.89,3.6
		c-3.74,1.33-7.77,1.75-11.38,3.47c-6.65,2.84-12.21,7.77-16.63,13.42c-1.24,1.74-2.65,3.4-3.47,5.39c3.67,2.66,6.92,5.9,9.69,9.47
		c7.42,9.41,11.6,21.04,13.22,32.83c0.26,2.25,0.06,4.56,0.75,6.76c17.08-0.04,34.16-0.03,51.25-0.01c0.1-0.31,0.3-0.92,0.4-1.22
		C201.44,132.75,199.21,115.44,190.88,101.21z" />
		<path class="st0" d="M112.26,99.16c-3.28-1.17-6.68-1.98-10.09-2.67c2.77-1.64,6.1-1.98,8.85-3.67
		c8.32-4.36,13.27-14.28,11.66-23.54c-0.87-5.9-4.18-11.4-9-14.9c-5.77-4.35-13.71-5.73-20.57-3.35
		c-6.81,2.14-12.42,7.73-14.64,14.5c-1.63,4.76-1.6,10.04,0.12,14.76c2.01,5.85,6.53,10.75,12.16,13.28
		c2.36,1.09,4.96,1.55,7.24,2.83c-4.23,1.16-8.64,1.89-12.59,3.9c-4.73,2.23-8.92,5.53-12.48,9.35
		c-9.3,10.09-14.2,23.64-15.38,37.17c-0.01,2.94-0.62,5.87-0.18,8.8c0.15,4,0.47,8.04,1.49,11.93c3.3,0.29,6.61,0.05,9.91,0.13
		c24.22-0.04,48.43,0.08,72.65-0.05c3.47-16.18,1.17-33.72-6.94-48.21C129.45,110.58,121.85,102.87,112.26,99.16z" />
		<path class="st0" d="M76.77,101.04c-0.82-1.99-2.24-3.65-3.47-5.39C68.88,90,63.32,85.07,56.67,82.23
		c-3.61-1.72-7.64-2.15-11.38-3.47c2.89-1.38,6.1-1.98,8.89-3.6c5.8-3.19,10.05-9.03,11.3-15.53c0.8-5.3,0.29-10.99-2.54-15.65
		c-3.29-5.9-9.33-10.13-15.97-11.3c-5.91-1.16-12.22,0.44-17.11,3.9c-4.94,3.47-8.39,8.98-9.36,14.94
		c-1.58,8.98,2.89,18.52,10.68,23.2l9.82,4.15c-3.14,0.81-6.34,1.47-9.43,2.49c-9.63,3.54-17.37,11.07-22.46,19.84
		c-8.33,14.23-10.56,31.55-7.66,47.66c0.1,0.31,0.3,0.92,0.4,1.22c17.08-0.02,34.17-0.03,51.25,0.01c0.69-2.19,0.49-4.51,0.75-6.76
		c1.63-11.79,5.8-23.42,13.22-32.83C69.85,106.94,73.1,103.71,76.77,101.04z" />
	</g>
</svg>