<?xml version="1.0" encoding="utf-8"?>
<!-- Generator: Adobe Illustrator 25.4.1, SVG Export Plug-In . SVG Version: 6.00 Build 0)  -->
<svg version="1.1" id="Layer_1" xmlns="http://www.w3.org/2000/svg" xmlns:xlink="http://www.w3.org/1999/xlink" x="0px"
	y="0px" viewBox="0 0 200 200" style="enable-background:new 0 0 200 200;" xml:space="preserve">
	<style type="text/css">
		.st0 {
			fill: #2BAE68;
		}
	</style>
	<g id="_x23_231f20ff">
		<path class="st0" d="M134.27,6.02c8.25-1.62,17.06,0.61,23.88,5.45c6.89,4.84,11.71,12.54,13.07,20.85
		c2.21,12.53-4.03,25.86-14.91,32.39c-4.21,2.73-9.26,3.56-13.71,5.79c4.39,1.13,8.85,2.05,13.16,3.48
		c13.45,4.94,24.25,15.46,31.36,27.7c11.63,19.87,14.74,44.04,10.7,66.53c-0.14,0.43-0.42,1.28-0.56,1.71
		c-23.85-0.03-47.7-0.04-71.54,0.01c-0.96-3.06-0.69-6.29-1.05-9.43c-2.27-16.46-8.1-32.69-18.46-45.83
		c-3.87-4.99-8.4-9.5-13.53-13.22c1.15-2.78,3.12-5.09,4.85-7.52c6.17-7.89,13.92-14.78,23.21-18.74c5.04-2.4,10.67-3,15.89-4.85
		c-4.03-1.93-8.52-2.76-12.41-5.02c-8.09-4.46-14.03-12.61-15.78-21.68c-1.12-7.4-0.41-15.34,3.54-21.85
		C116.57,13.56,125,7.65,134.27,6.02z" />
		<path class="st0" d="M50.64,31.62c9.57-3.32,20.65-1.39,28.71,4.68c6.74,4.88,11.35,12.57,12.57,20.8
		c2.24,12.93-4.66,26.78-16.28,32.86c-3.84,2.37-8.49,2.84-12.36,5.13c4.76,0.96,9.51,2.09,14.09,3.73
		c13.39,5.18,23.99,15.95,31.01,28.28c11.33,20.23,14.54,44.71,9.69,67.3c-33.81,0.18-67.61,0.02-101.42,0.07
		c-4.61-0.11-9.24,0.23-13.84-0.18c-1.42-5.44-1.87-11.07-2.08-16.66c-0.61-4.1,0.23-8.19,0.25-12.29
		c1.65-18.89,8.49-37.8,21.47-51.89c4.97-5.33,10.81-9.93,17.42-13.05c5.52-2.8,11.67-3.82,17.58-5.44
		c-3.18-1.78-6.82-2.43-10.11-3.95c-7.86-3.53-14.17-10.38-16.97-18.54c-2.41-6.6-2.45-13.97-0.17-20.61
		C33.3,42.41,41.13,34.61,50.64,31.62z" />
	</g>
</svg>