<?xml version="1.0" encoding="utf-8"?>
<!-- Generator: Adobe Illustrator 25.4.1, SVG Export Plug-In . SVG Version: 6.00 Build 0)  -->
<svg version="1.1" id="Layer_1" xmlns="http://www.w3.org/2000/svg" xmlns:xlink="http://www.w3.org/1999/xlink" x="0px"
	y="0px" viewBox="0 0 200 200" style="enable-background:new 0 0 200 200;" xml:space="preserve">
	<g id="_x23_000000ff">
		<path class="st0" d="M62.54,25.2c2.26,0,4.53,0,6.8-0.01c-0.01,3.37-0.01,6.72,0.01,10.08c-2.27-0.03-4.54-0.04-6.81-0.05
		C62.54,31.88,62.54,28.53,62.54,25.2z" />
		<path class="st0" d="M130.74,25.19c2.26,0.01,4.5,0.01,6.76,0.01c0,3.33,0,6.67,0.01,10.01c-2.26,0.01-4.53,0.03-6.79,0.05
		C130.75,31.92,130.75,28.56,130.74,25.19z" />
		<path class="st0" d="M29.36,37.17c47.17,0.48,94.37,0.48,141.54,0.86c9.76,7.11,18.97,14.98,28.56,22.34
		c-66.3-0.41-132.61-0.75-198.91-0.99C10.25,52.1,19.73,44.56,29.36,37.17 M26.2,54.52c6.07,0,12.14,0.1,18.21-0.09
		c-0.35-4.37-2.8-8.98-7.46-9.85C31.01,43.09,25.7,48.73,26.2,54.52 M90.73,54.45c6.19,0.14,12.4,0.14,18.61,0
		c-0.27-5.47-4.71-11.07-10.65-9.92C93.72,45.08,91.21,49.96,90.73,54.45 M155.68,54.43c6.05,0.19,12.13,0.08,18.2,0.09
		c0.5-5.76-4.77-11.36-10.66-9.95C158.51,45.4,156.02,50.03,155.68,54.43z" />
		<path class="st0" d="M28.22,51.94c1.64-2.56,3.74-5.57,7.23-5.17c3.2-0.1,4.94,2.9,6.63,5.11C37.48,52.07,32.84,52.06,28.22,51.94z
		" />
		<path class="st0" d="M93.07,51.92c1.7-2.37,3.6-5.42,6.99-5.12c3.37-0.27,5.23,2.76,6.92,5.12C102.35,52.06,97.7,52.06,93.07,51.92
		z" />
		<path class="st0" d="M158.01,51.88c1.65-2.25,3.41-5.23,6.63-5.11c3.47-0.4,5.56,2.62,7.2,5.16
		C167.23,52.07,162.61,52.07,158.01,51.88z" />
		<path class="st0" d="M12.11,62.28c58.61,0,117.24,0.01,175.86,0.34c-0.03,15.85-0.03,31.69-0.01,47.54
		c-15.49-0.04-30.96-0.05-46.44,0c0.05-6.27,0.01-12.54,0.04-18.81c-4.04,0-8.09,0-12.13,0c0.03-4.12,0.03-8.23,0.04-12.35
		c-3.56-0.01-7.12-0.01-10.69-0.04c0,4.13-0.01,8.27,0.04,12.4c-2.49-0.01-4.97-0.01-7.46-0.01c-0.81-7.86,2.86-18.27-4.79-23.72
		c-6.18-4.93-16.26-0.76-17.65,6.85c-0.54,5.6-0.1,11.25-0.22,16.87c-2.48,0-4.96,0-7.43,0.01c0.05-4.13,0.04-8.27,0.04-12.4
		c-3.57,0.03-7.15,0.03-10.71,0.05c0.03,4.12,0.03,8.22,0.04,12.34c-4.05,0-8.1,0-12.14,0.01c0.01,6.27-0.01,12.54,0.03,18.83
		c-15.47-0.1-30.93-0.05-46.39-0.03C12.13,94.19,12.15,78.24,12.11,62.28 M26.68,82.02c-0.22,7.33-0.03,14.67-0.06,22.02
		c5.81,0.01,11.63,0,17.43,0.01c-0.04-7.27,0.12-14.53-0.04-21.8c-0.08-4.9-5.02-8.97-9.87-8.03C30.2,74.5,26.74,78.08,26.68,82.02
		 M156.07,82.18c-0.17,7.29,0,14.58-0.04,21.86c5.79,0,11.6,0.01,17.41,0c-0.03-7.32,0.13-14.63-0.04-21.94
		c-0.03-3.95-3.48-7.55-7.39-7.86C161.17,73.25,156.19,77.27,156.07,82.18z" />
		<path class="st0" d="M91.29,74.64c0.77-3.78,4.32-5.72,7.52-7.21c0.04,7.98,0.01,15.95,0.01,23.91c-2.62,0-5.24,0-7.86,0
		C91.12,85.78,90.55,80.17,91.29,74.64z" />
		<path class="st0" d="M101.24,67.42c3.2,1.51,6.76,3.46,7.55,7.25c0.54,5.52,0.04,11.12,0.31,16.67c-2.62,0-5.25,0-7.87,0
		C101.23,83.37,101.19,75.39,101.24,67.42z" />
		<path class="st0"
			d="M36.47,81.62c0.03-1.91,0.06-3.81,0.13-5.7c2.16,1.47,4,3.32,5.55,5.39C40.25,81.43,38.35,81.53,36.47,81.62z" />
		<path class="st0" d="M28.42,81.35c1.55-2.09,3.37-3.96,5.59-5.33c0.12,1.86,0.22,3.72,0.3,5.57
		C32.34,81.53,30.38,81.46,28.42,81.35z" />
		<path class="st0" d="M157.92,81.34c1.55-2.09,3.39-3.92,5.54-5.41c0.06,1.88,0.1,3.78,0.15,5.68
		C161.71,81.53,159.8,81.44,157.92,81.34z" />
		<path class="st0" d="M166.07,76.02c2.22,1.37,4.04,3.24,5.56,5.34c-1.96,0.09-3.91,0.17-5.86,0.23
		C165.85,79.74,165.96,77.88,166.07,76.02z" />
		<path class="st0" d="M72.89,81.39c1.97-0.03,3.96-0.05,5.95-0.09c-0.05,3.36-0.04,6.7,0.01,10.04c-1.99,0-3.97,0-5.95,0
		C72.89,88.02,72.9,84.71,72.89,81.39z" />
		<path class="st0" d="M121.24,81.31c1.97,0.03,3.95,0.05,5.94,0.08c0.01,3.32,0,6.63,0.01,9.95c-1.99,0-3.96,0.01-5.95,0.01
		C121.27,88.01,121.31,84.66,121.24,81.31z" />
		<path class="st0" d="M28.87,84.02c1.78,0,3.57,0,5.36,0c0,2.65,0,5.29,0,7.94c-1.78-0.03-3.57-0.04-5.36-0.04
		C28.87,89.29,28.87,86.66,28.87,84.02z" />
		<path class="st0" d="M165.85,84c1.78,0.01,3.56,0.03,5.34,0.04c-0.03,2.63-0.01,5.27-0.01,7.88c-1.78,0-3.56,0.01-5.33,0.04
		C165.85,89.3,165.85,86.64,165.85,84z" />
		<path class="st0" d="M36.5,84.04c1.3-0.01,3.91-0.03,5.23-0.03c-0.03,2.65-0.03,5.28-0.01,7.92c-1.3,0.01-3.91,0.03-5.21,0.03
		C36.51,89.31,36.51,86.67,36.5,84.04z" />
		<path class="st0" d="M158.35,84.01c1.3,0,3.91,0.01,5.21,0.03c-0.03,2.63-0.03,5.28-0.03,7.92c-1.29,0-3.87-0.01-5.17-0.03
		C158.38,89.3,158.38,86.66,158.35,84.01z" />
		<path class="st0" d="M28.87,94.31c1.78-0.03,3.57-0.04,5.36-0.06c0,2.49,0,4.97,0,7.46c-1.78,0-3.56,0-5.34,0
		C28.88,99.24,28.88,96.77,28.87,94.31z" />
		<path class="st0" d="M60.81,93.61c26.14-0.03,52.29-0.03,78.43,0c0,3.05,0,6.1,0.03,9.16c-26.17,0-52.33,0-78.49,0
		C60.8,99.72,60.81,96.66,60.81,93.61z" />
		<path class="st0" d="M165.85,94.26c1.77,0.03,3.55,0.04,5.33,0.05c0,2.45,0,4.92,0,7.39c-1.78,0-3.55,0-5.33,0
		C165.85,99.23,165.85,96.74,165.85,94.26z" />
		<path class="st0" d="M36.48,94.26c1.3,0,3.91,0.01,5.21,0.01c0,2.48,0.01,4.96,0.05,7.45c-1.32,0-3.94,0.01-5.25,0.01
		C36.51,99.24,36.5,96.75,36.48,94.26z" />
		<path class="st0" d="M158.38,94.27c1.29,0,3.87,0,5.17,0c-0.01,2.48,0,4.97,0,7.46c-1.3-0.01-3.92-0.01-5.23-0.01
		C158.37,99.24,158.37,96.75,158.38,94.27z" />
		<path class="st0" d="M60.8,105.12c26.16,0.03,52.32,0.03,78.47,0c0,1.26-0.01,3.77-0.03,5.03c-26.16-0.04-52.32-0.06-78.47,0.01
		C60.77,108.9,60.78,106.39,60.8,105.12z" />
		<path class="st0" d="M12.11,112.52c15.49,0.05,30.96,0.04,46.44,0.01c-0.1,15.87-0.08,31.76-0.01,47.63
		c-15.49-0.04-30.96-0.01-46.44-0.01C12.15,144.28,12.13,128.39,12.11,112.52 M26.65,129.73c-0.15,7.24,0,14.48-0.05,21.71
		c5.82,0.01,11.65,0.01,17.47,0.01c-0.06-7.21,0.08-14.43-0.05-21.64c0-3.66-2.63-7.06-6.13-8.09
		C32.74,119.78,26.51,124.25,26.65,129.73z" />
		<path class="st0" d="M60.77,112.49c1.14,0.01,3.41,0.05,4.54,0.08c0,15.85-0.03,31.71,0.01,47.55c-1.14,0.01-3.41,0.04-4.54,0.05
		C60.81,144.28,60.83,128.38,60.77,112.49z" />
		<path class="st0" d="M67.61,112.53c3.17,0.01,6.34,0.01,9.51-0.01c-0.03,15.89-0.01,31.77,0,47.66c-3.17-0.04-6.34-0.04-9.51,0
		C67.62,144.29,67.62,128.4,67.61,112.53z" />
		<path class="st0" d="M79.39,112.53c1.15,0,3.45,0,4.61,0c-0.08,15.87-0.08,31.75,0,47.62c-1.16,0-3.46,0.03-4.61,0.03
		C79.39,144.29,79.39,128.42,79.39,112.53z" />
		<path class="st0" d="M86.33,160.28c0-15.92,0.06-31.85-0.04-47.77c9.16,0.06,18.32,0.06,27.49,0c-0.1,15.92-0.04,31.85-0.04,47.77
		l-2.37-0.13c-0.01-8.78,0.08-17.55-0.03-26.33c-0.04-6.34-6.28-11.69-12.57-10.69c-5.39,0.34-9.95,5.25-10.05,10.62
		c-0.1,8.79-0.03,17.59-0.01,26.39L86.33,160.28z" />
		<path class="st0" d="M116.08,160.15c0.08-15.87,0.08-31.75,0-47.62c1.16,0,3.46,0,4.61,0c0,15.89,0,31.77,0,47.64
		C119.54,160.17,117.24,160.15,116.08,160.15z" />
		<path class="st0" d="M122.94,112.52c3.17,0.03,6.35,0.03,9.52,0.01c-0.01,15.87-0.01,31.76,0,47.64c-3.17-0.03-6.35-0.04-9.52,0.01
		C122.97,144.29,122.96,128.4,122.94,112.52z" />
		<path class="st0" d="M134.77,112.57c1.14-0.03,3.38-0.06,4.5-0.08c-0.05,15.91-0.03,31.81-0.01,47.72c-1.12-0.03-3.38-0.08-4.5-0.1
		C134.79,144.26,134.77,128.42,134.77,112.57z" />
		<path class="st0" d="M141.49,112.54c15.49,0.01,30.98,0,46.47,0c-0.01,15.87-0.01,31.73,0,47.59c-15.5,0.01-30.98,0-46.47,0.01
		C141.58,144.28,141.58,128.42,141.49,112.54 M156.06,129.73c-0.13,7.24,0.01,14.48-0.05,21.72c5.82,0,11.63,0,17.45,0
		c-0.04-7.25,0.09-14.49-0.03-21.73c0.09-4.63-4.4-8.68-8.97-8.43C160.06,121.41,156.07,125.27,156.06,129.73z" />
		<path class="st0" d="M28.62,128.4c1.33-2.14,3.26-3.77,5.34-5.15c0.14,1.9,0.26,3.81,0.35,5.72
		C32.41,128.91,30.5,128.83,28.62,128.4z" />
		<path class="st0" d="M36.56,123.32c2.28,1.32,4.14,3.17,5.47,5.45c-1.86,0.04-3.7,0.08-5.56,0.12
		C36.5,127.02,36.52,125.16,36.56,123.32z" />
		<path class="st0" d="M158.06,128.76c1.3-2.27,3.15-4.13,5.42-5.45c0.04,1.85,0.06,3.7,0.1,5.56
		C161.74,128.84,159.89,128.8,158.06,128.76z" />
		<path class="st0"
			d="M166.15,123.16c2.13,1.57,4,3.46,5.6,5.57c-2,0.06-4,0.1-6,0.14C165.85,126.97,165.98,125.06,166.15,123.16z" />
		<path class="st0" d="M91.04,133.69c0.13-4.4,3.86-7.39,7.77-8.61c0.03,11.69,0.01,23.4,0.01,35.1c-2.62-0.04-5.24-0.05-7.86-0.05
		C91.04,151.32,90.81,142.51,91.04,133.69z" />
		<path class="st0" d="M101.24,125.07c3.83,1.25,7.6,4.12,7.74,8.48c0.14,8.85-0.08,17.72,0.08,26.58c-2.62,0-5.24,0.01-7.85,0.04
		C101.25,148.48,101.19,136.78,101.24,125.07z" />
		<path class="st0" d="M28.88,131.16c1.78,0,3.56,0,5.34,0c0,2.68,0,5.36,0,8.04c-1.78,0-3.56,0-5.34,0
		C28.88,136.52,28.88,133.85,28.88,131.16z" />
		<path class="st0" d="M36.51,131.16c1.73,0,3.47,0,5.21,0c-0.03,2.68-0.01,5.37,0.03,8.05c-1.76-0.01-3.5,0-5.25,0
		C36.51,136.53,36.51,133.85,36.51,131.16z" />
		<path class="st0" d="M158.35,131.16c1.73,0,3.46,0,5.19,0c0,2.68,0,5.37,0.03,8.05c-1.74,0-3.5-0.01-5.24,0
		C158.37,136.53,158.38,133.85,158.35,131.16z" />
		<path class="st0" d="M165.85,131.16c1.78,0,3.55,0,5.33,0c0,2.68,0,5.36,0.01,8.04c-1.78,0-3.56,0-5.34,0
		C165.85,136.52,165.85,133.85,165.85,131.16z" />
		<path class="st0" d="M28.9,141.42c1.78,0,3.55,0,5.33,0c0,2.54,0,5.08,0,7.63c-1.78-0.04-3.57-0.05-5.36-0.05
		C28.88,146.47,28.88,143.95,28.9,141.42z" />
		<path class="st0" d="M36.51,149.08c-0.04-2.56,0.03-5.11-0.01-7.67c1.72,0.01,3.43,0.03,5.15,0.04c0.04,2.5,0.05,5.01,0.1,7.51
		C40.01,148.99,38.25,149.02,36.51,149.08z" />
		<path class="st0" d="M158.43,141.45c1.69-0.01,3.39-0.03,5.1-0.04c0.01,2.56,0.03,5.1,0.04,7.65c-1.76-0.04-3.5-0.08-5.23-0.09
		C158.38,146.46,158.39,143.95,158.43,141.45z" />
		<path class="st0" d="M165.85,141.41c1.77,0.01,3.55,0.03,5.32,0.05c0,2.5,0.01,5.01,0.03,7.52c-1.78,0.01-3.56,0.04-5.34,0.08
		C165.85,146.51,165.85,143.95,165.85,141.41z" />
		<path class="st0" d="M12.11,162.54c15.47,0.06,30.95,0.04,46.42,0.01c-0.04,4.08-0.04,8.17-0.03,12.25
		c-15.46-0.04-30.93-0.08-46.39,0.01C12.13,170.72,12.13,166.63,12.11,162.54z" />
		<path class="st0" d="M59.4,163.16c2.3-0.49,4.66-0.62,7.01-0.61c22.83,0.04,45.66,0.01,68.48,0.01c1.95,0,3.88,0.22,5.78,0.68
		c-0.8,0.35-2.39,1.06-3.19,1.42c-23.64,0.15-47.3-0.03-70.94,0.08C64.1,164.67,61.34,165.12,59.4,163.16z" />
		<path class="st0" d="M141.49,162.56c15.5,0,30.98,0.04,46.48-0.01c-0.03,4.09-0.03,8.17-0.01,12.26
		c-15.49-0.09-30.96-0.06-46.44-0.01C141.55,170.72,141.54,166.64,141.49,162.56z" />
		<path class="st0" d="M60.77,170.2c0-1.1,0-2.18-0.01-3.26c26.17,0.09,52.34,0.08,78.51,0.01c0.01,0.81,0.01,2.44,0.01,3.25
		C113.11,170.18,86.94,170.19,60.77,170.2z" />
		<path class="st0" d="M59.21,173.81c1.88-1.07,3.9-1.54,6.04-1.38c24.11,0.1,48.22-0.06,72.33,0.08c0.8,0.34,2.43,0.99,3.24,1.33
		c-3.57,1.37-7.42,0.85-11.15,0.93c-21.5-0.01-43.01-0.03-64.52,0.01C63.11,174.85,61.13,174.52,59.21,173.81z" />
	</g>
</svg>