<?xml version="1.0" encoding="utf-8"?>
<!-- Generator: Adobe Illustrator 25.4.1, SVG Export Plug-In . SVG Version: 6.00 Build 0)  -->
<svg version="1.1" id="Layer_1" xmlns="http://www.w3.org/2000/svg" xmlns:xlink="http://www.w3.org/1999/xlink" x="0px"
	y="0px" viewBox="0 0 200 200" style="enable-background:new 0 0 200 200;" xml:space="preserve">
	<style type="text/css">
		.st0 {
			fill: #2BAE68;
		}
	</style>
	<g id="_x23_040708ff">
		<path class="st0" d="M93.13,30.13c33.92-1.69,68.25,10.61,93.79,32.93c4.82,3.86,5.43,11.76,1.16,16.24
		c-3.7,4.48-10.98,5.13-15.45,1.44c-19.92-17.61-46.07-27.97-72.6-29.09c-24.51,1.03-48.72,9.95-67.95,25.2
		c-3.01,2.28-5.61,5.55-9.58,6.11c-5.58,1.2-11.51-2.6-13.01-8.05c-1.15-4.03,0.09-8.64,3.22-11.45
		C34.81,43.77,63.68,32.16,93.13,30.13z" />
		<path class="st0" d="M86.71,67.97c27.34-4.23,56.3,5.09,76.07,24.41c4.1,4.24,3.87,11.61-0.34,15.69
		c-4.07,4.25-11.52,4.43-15.75,0.3c-12.56-11.72-29.44-18.82-46.64-19.3c-17.21,0.47-34.15,7.55-46.7,19.32
		c-2.7,2.57-6.66,3.52-10.26,2.7c-4.76-1-8.51-5.44-8.79-10.29c-0.28-3.27,1.06-6.56,3.37-8.86C51.08,79.23,68.41,70.68,86.71,67.97
		z" />
		<path class="st0" d="M90.1,104.93c16.92-3.66,35,2.69,47.52,14.24c4.55,4.05,4.67,11.82,0.36,16.08
		c-3.89,4.26-11.2,4.63-15.51,0.79c-6.23-5.38-14-9.67-22.44-9.57c-8.23-0.1-15.87,3.95-21.98,9.17c-2.21,2.08-5.19,3.26-8.24,3.02
		c-6.23,0.09-11.53-5.95-10.88-12.09c0.08-3.27,1.92-6.22,4.4-8.25C70.89,111.63,80.21,106.95,90.1,104.93z" />
		<path class="st0" d="M96.2,143.64c7.42-2.43,15.97,2.94,17.08,10.64c1.37,6.97-3.72,14.27-10.71,15.47
		c-7.23,1.6-15.02-3.91-15.86-11.28C85.62,152.04,89.97,145.4,96.2,143.64z" />
	</g>
</svg>